<svg width="16" height="17" viewBox="0 0 16 17" fill="none" xmlns="http://www.w3.org/2000/svg">
<path d="M10.0603 2.72096C10.1869 2.72096 10.3136 2.76763 10.4136 2.86763C10.6069 3.06096 10.6069 3.38096 10.4136 3.5743L6.06693 7.92096C5.74693 8.24096 5.74693 8.76096 6.06693 9.08096L10.4136 13.4276C10.6069 13.621 10.6069 13.941 10.4136 14.1343C10.2203 14.3276 9.90026 14.3276 9.70693 14.1343L5.36026 9.78763C5.02026 9.44763 4.82693 8.98763 4.82693 8.50096C4.82693 8.0143 5.01359 7.5543 5.36026 7.2143L9.70693 2.86763C9.80693 2.7743 9.93359 2.72096 10.0603 2.72096Z" fill="#2C6DF9"/>
</svg>
