<svg width="16" height="17" viewBox="0 0 16 17" fill="none" xmlns="http://www.w3.org/2000/svg">
<path d="M5.93974 14.279C5.81307 14.279 5.68641 14.2324 5.58641 14.1324C5.39307 13.939 5.39307 13.619 5.58641 13.4257L9.93307 9.07904C10.2531 8.75904 10.2531 8.23904 9.93307 7.91904L5.58641 3.57237C5.39307 3.37904 5.39307 3.05904 5.58641 2.8657C5.77974 2.67237 6.09974 2.67237 6.29307 2.8657L10.6397 7.21237C10.9797 7.55237 11.1731 8.01237 11.1731 8.49904C11.1731 8.9857 10.9864 9.4457 10.6397 9.7857L6.29307 14.1324C6.19307 14.2257 6.06641 14.279 5.93974 14.279Z" fill="#2C6DF9"/>
</svg>
