<svg xmlns="http://www.w3.org/2000/svg" width="18" height="16" viewBox="0 0 18 16" fill="none">
<path d="M8.85896 11.3217C8.87566 11.3431 8.897 11.3603 8.92137 11.3722C8.94573 11.3841 8.97248 11.3902 8.99958 11.3902C9.02668 11.3902 9.05343 11.3841 9.0778 11.3722C9.10216 11.3603 9.1235 11.3431 9.14021 11.3217L11.6402 8.15876C11.7317 8.04269 11.6491 7.87082 11.4996 7.87082H9.84556V0.317243C9.84556 0.219029 9.76521 0.138672 9.66699 0.138672H8.32771C8.22949 0.138672 8.14914 0.219029 8.14914 0.317243V7.86858H6.49958C6.35003 7.86858 6.26744 8.04046 6.35896 8.15653L8.85896 11.3217ZM17.1692 10.5405H15.8299C15.7317 10.5405 15.6514 10.6208 15.6514 10.719V14.1565H2.3478V10.719C2.3478 10.6208 2.26744 10.5405 2.16922 10.5405H0.829939C0.731724 10.5405 0.651367 10.6208 0.651367 10.719V15.1387C0.651367 15.5338 0.970564 15.853 1.36565 15.853H16.6335C17.0286 15.853 17.3478 15.5338 17.3478 15.1387V10.719C17.3478 10.6208 17.2674 10.5405 17.1692 10.5405Z" fill="#F5BA31"/>
</svg>