<svg width="14" height="14" viewBox="0 0 14 14" fill="none" xmlns="http://www.w3.org/2000/svg">
<path d="M6.88736 9.65737C6.90072 9.67444 6.9178 9.68825 6.93729 9.69775C6.95678 9.70724 6.97818 9.71218 6.99986 9.71218C7.02154 9.71218 7.04294 9.70724 7.06243 9.69775C7.08192 9.68825 7.099 9.67444 7.11236 9.65737L9.11236 7.12701C9.18557 7.03415 9.1195 6.89665 8.99986 6.89665H7.67665V0.853795C7.67665 0.775223 7.61236 0.710938 7.53379 0.710938H6.46236C6.38379 0.710938 6.3195 0.775223 6.3195 0.853795V6.89487H4.99986C4.88022 6.89487 4.81415 7.03237 4.88736 7.12522L6.88736 9.65737ZM13.5356 9.03237H12.4641C12.3856 9.03237 12.3213 9.09665 12.3213 9.17522V11.9252H1.67843V9.17522C1.67843 9.09665 1.61415 9.03237 1.53557 9.03237H0.464146C0.385575 9.03237 0.321289 9.09665 0.321289 9.17522V12.7109C0.321289 13.027 0.576646 13.2824 0.892718 13.2824H13.107C13.4231 13.2824 13.6784 13.027 13.6784 12.7109V9.17522C13.6784 9.09665 13.6141 9.03237 13.5356 9.03237Z" fill="#F5BA31"/>
</svg>
