<svg width="56" height="56" viewBox="0 0 56 56" fill="none" xmlns="http://www.w3.org/2000/svg">
<g clip-path="url(#clip0_21109_52061)">
<path opacity="0.3" d="M28 56C43.464 56 56 43.464 56 28C56 12.536 43.464 0 28 0C12.536 0 0 12.536 0 28C0 43.464 12.536 56 28 56Z" fill="#E4EDFF"/>
<path d="M27.9997 46.6654C38.309 46.6654 46.6663 38.308 46.6663 27.9987C46.6663 17.6894 38.309 9.33203 27.9997 9.33203C17.6904 9.33203 9.33301 17.6894 9.33301 27.9987C9.33301 38.308 17.6904 46.6654 27.9997 46.6654Z" fill="#E4EDFF"/>
<path d="M32.2502 19.56V20.0158L32.7041 20.0579C33.9609 20.1742 34.8398 20.6001 35.4288 21.2253C36.0189 21.8518 36.3661 22.7297 36.461 23.8399C36.4606 23.84 36.4604 23.84 36.4602 23.84H36.4602H19.5419C19.5412 23.8397 19.5404 23.8392 19.5396 23.8385C19.6346 22.729 19.9818 21.8515 20.5717 21.2253C21.1607 20.6001 22.0395 20.1742 23.2963 20.0579L23.7502 20.0158V19.56V18C23.7502 17.8661 23.8664 17.75 24.0002 17.75C24.1341 17.75 24.2502 17.8661 24.2502 18V19.5V20H24.7502H31.2502H31.7502V19.5V18C31.7502 17.8661 31.8664 17.75 32.0002 17.75C32.1341 17.75 32.2502 17.8661 32.2502 18V19.56Z" fill="#2C6DF9" stroke="#2C6DF9"/>
<path d="M25.5223 34.6003L25.5493 34.5787L25.573 34.5537C25.835 34.2772 26 33.8962 26 33.4998C26 33.1035 25.835 32.7225 25.573 32.446L25.5493 32.4209L25.5223 32.3994L25.4474 32.3394L25.3723 32.2794L25.3554 32.2659L25.3374 32.2538C25.2552 32.1991 25.1668 32.1523 25.0721 32.1174C24.9836 32.0763 24.8896 32.0454 24.7906 32.0281C24.5014 31.9717 24.2028 31.9989 23.9287 32.1178C23.7316 32.1955 23.5837 32.3029 23.4555 32.4182L23.4407 32.4315L23.427 32.446C23.165 32.7225 23 33.1035 23 33.4998C23 33.8962 23.165 34.2772 23.427 34.5537L23.4407 34.5682L23.4555 34.5815C23.5848 34.6979 23.7343 34.8061 23.934 34.884C24.1036 34.9538 24.2967 34.9998 24.5 34.9998C24.6011 34.9998 24.6924 34.9864 24.7503 34.9778C24.7577 34.9767 24.7645 34.9757 24.7707 34.9748L24.7707 34.975L24.7822 34.973C24.8843 34.956 24.9811 34.9246 25.0721 34.8822C25.1635 34.8485 25.2491 34.8038 25.3289 34.7515C25.3857 34.716 25.4322 34.6772 25.4588 34.6546C25.4774 34.6388 25.4884 34.6292 25.4967 34.622C25.5066 34.6133 25.5124 34.6082 25.5223 34.6003ZM25.5539 31.0728L25.5637 31.0635L25.573 31.0537C25.835 30.7772 26 30.3962 26 29.9998C26 29.6035 25.835 29.2225 25.573 28.946L25.5731 28.9458L25.5636 28.9363C25.422 28.7947 25.2543 28.6894 25.0689 28.6168C24.5091 28.3795 23.8562 28.5165 23.4364 28.9363L23.4363 28.9362L23.427 28.946C23.165 29.2225 23 29.6035 23 29.9998C23 30.3962 23.165 30.7772 23.427 31.0537L23.4363 31.0635L23.4461 31.0728C23.7227 31.3348 24.1036 31.4998 24.5 31.4998C24.8964 31.4998 25.2773 31.3348 25.5539 31.0728ZM29.0539 34.5728L29.0637 34.5635L29.073 34.5537C29.335 34.2772 29.5 33.8962 29.5 33.4998C29.5 33.1035 29.335 32.7225 29.073 32.446L29.0731 32.4458L29.0636 32.4363C28.7704 32.1432 28.3733 32.0123 28 32.0123C27.6267 32.0123 27.2296 32.1432 26.9364 32.4363L26.9363 32.4362L26.927 32.446C26.665 32.7225 26.5 33.1035 26.5 33.4998C26.5 33.8962 26.665 34.2772 26.927 34.5537L26.9363 34.5635L26.9461 34.5728C27.2227 34.8348 27.6036 34.9998 28 34.9998C28.3964 34.9998 28.7773 34.8348 29.0539 34.5728ZM29.0223 31.1003L29.0493 31.0787L29.073 31.0537C29.335 30.7772 29.5 30.3962 29.5 29.9998C29.5 29.6035 29.335 29.2225 29.073 28.946L29.0731 28.9458L29.0636 28.9363C28.6438 28.5165 27.9909 28.3795 27.4311 28.6168C27.2457 28.6894 27.078 28.7947 26.9364 28.9363L26.9363 28.9362L26.927 28.946C26.665 29.2225 26.5 29.6035 26.5 29.9998C26.5 30.3962 26.665 30.7772 26.927 31.0537L26.9363 31.0635L26.9461 31.0728C27.2227 31.3348 27.6036 31.4998 28 31.4998C28.1011 31.4998 28.1924 31.4864 28.2503 31.4778C28.2577 31.4767 28.2645 31.4757 28.2707 31.4748L28.2707 31.475L28.2822 31.473C28.3843 31.456 28.4811 31.4246 28.5721 31.3822C28.6668 31.3473 28.7552 31.3006 28.8373 31.2459L28.8554 31.2338L28.8723 31.2203L28.9473 31.1603L29.0223 31.1003ZM32.5539 34.5728L32.5637 34.5635L32.573 34.5537C32.835 34.2772 33 33.8962 33 33.4998C33 33.1035 32.835 32.7225 32.573 32.446L32.5731 32.4458L32.5636 32.4363C32.2704 32.1432 31.8733 32.0123 31.5 32.0123C31.1267 32.0123 30.7296 32.1432 30.4364 32.4363L30.4363 32.4362L30.427 32.446C30.165 32.7225 30 33.1035 30 33.4998C30 33.8962 30.165 34.2772 30.427 34.5537L30.4363 34.5635L30.4461 34.5728C30.7227 34.8348 31.1036 34.9998 31.5 34.9998C31.8964 34.9998 32.2773 34.8348 32.5539 34.5728ZM32.5223 31.1003L32.5493 31.0787L32.573 31.0537C32.835 30.7772 33 30.3962 33 29.9998C33 29.6035 32.835 29.2225 32.573 28.946L32.5493 28.9209L32.5223 28.8994L32.4473 28.8394L32.3723 28.7794L32.3554 28.7659L32.3373 28.7538C32.2552 28.6991 32.1668 28.6524 32.0721 28.6174C31.9836 28.5763 31.8896 28.5454 31.7906 28.5281C31.5014 28.4717 31.2028 28.4989 30.9287 28.6178C30.7316 28.6955 30.5837 28.8029 30.4555 28.9182L30.4407 28.9315L30.427 28.946C30.165 29.2225 30 29.6035 30 29.9998C30 30.3962 30.165 30.7772 30.427 31.0537L30.4363 31.0635L30.4461 31.0728C30.7227 31.3348 31.1036 31.4998 31.5 31.4998C31.5967 31.4998 31.6981 31.4853 31.7596 31.4764C31.7635 31.4759 31.7672 31.4753 31.7707 31.4748L31.7707 31.475L31.7822 31.473C31.8843 31.456 31.9811 31.4246 32.0721 31.3822C32.1668 31.3473 32.2552 31.3006 32.3373 31.2459L32.3554 31.2338L32.3723 31.2203L32.4473 31.1603L32.5223 31.1003ZM20 26.3398H36C36.2739 26.3398 36.5 26.566 36.5 26.8398V32.9998C36.5 34.4232 36.1441 35.5329 35.4461 36.2846C34.7543 37.0296 33.6547 37.4998 32 37.4998H24C22.3453 37.4998 21.2457 37.0296 20.5539 36.2846C19.8559 35.5329 19.5 34.4232 19.5 32.9998V26.8398C19.5 26.566 19.7261 26.3398 20 26.3398Z" fill="#2C6DF9" stroke="#2C6DF9"/>
</g>
<defs>
<clipPath id="clip0_21109_52061">
<rect width="56" height="56" fill="white"/>
</clipPath>
</defs>
</svg>
