<svg width="14" height="14" viewBox="0 0 14 14" fill="none" xmlns="http://www.w3.org/2000/svg">
<path d="M7.62211 5.90721C7.62288 5.91499 7.62433 5.92253 7.62544 5.93019C7.62677 5.93948 7.62785 5.94879 7.62967 5.95803C7.63142 5.96684 7.63384 5.97539 7.63603 5.98404C7.63803 5.99199 7.63978 6 7.64216 6.00788C7.64473 6.01638 7.64793 6.02458 7.65091 6.03289C7.65374 6.04074 7.65633 6.04868 7.65953 6.05644C7.66273 6.0642 7.66653 6.07161 7.67007 6.07917C7.67384 6.08715 7.67739 6.09521 7.68158 6.10304C7.68547 6.11028 7.68988 6.11718 7.69409 6.12423C7.69867 6.13189 7.70301 6.13965 7.70801 6.14714C7.71321 6.15492 7.71902 6.16224 7.72461 6.16973C7.72929 6.17596 7.73363 6.18236 7.7386 6.18845C7.74952 6.20172 7.761 6.21451 7.77314 6.22665C7.77324 6.22675 7.77331 6.22685 7.77341 6.22695C7.77351 6.22705 7.77361 6.2271 7.77368 6.2272C7.78585 6.23934 7.79861 6.25084 7.81191 6.26176C7.818 6.26676 7.8244 6.27109 7.83066 6.27577C7.83812 6.28136 7.84544 6.28715 7.85322 6.29235C7.86071 6.29735 7.86847 6.30169 7.87616 6.30627C7.8832 6.31048 7.89008 6.31489 7.89732 6.31878C7.90515 6.32297 7.91318 6.32652 7.92119 6.33029C7.92875 6.33386 7.93619 6.33763 7.94392 6.34085C7.95168 6.34406 7.95962 6.34667 7.9675 6.34948C7.9758 6.35246 7.98398 6.35563 7.99245 6.3582C8.00034 6.36059 8.00837 6.36233 8.01632 6.36433C8.02497 6.36652 8.03352 6.36894 8.04231 6.37069C8.05155 6.37251 8.06086 6.37362 8.07015 6.37495C8.07781 6.37603 8.08534 6.37751 8.09313 6.37827C8.1104 6.37995 8.12769 6.38086 8.14501 6.38086L11.8236 6.38086C12.1139 6.38086 12.3491 6.14558 12.3491 5.85535C12.3491 5.56512 12.1139 5.32985 11.8236 5.32985L9.41373 5.32985L13.2462 1.49732C13.4515 1.2921 13.4515 0.959352 13.2462 0.75413C13.041 0.548909 12.7083 0.548909 12.503 0.75413L8.67054 4.58663L8.67054 2.17674C8.67054 1.88651 8.43526 1.65123 8.14503 1.65123C7.8548 1.65123 7.6195 1.88651 7.6195 2.17674L7.6195 5.8553C7.6195 5.87265 7.62041 5.88996 7.62211 5.90721Z" fill="white"/>
<path d="M1.49734 13.2464L5.32983 9.41393L5.32983 11.8238C5.32983 12.1141 5.5651 12.3493 5.85533 12.3493C6.14559 12.3493 6.38086 12.1141 6.38086 11.8238L6.38086 8.14523C6.38086 8.12791 6.37995 8.11062 6.37825 8.09338C6.37749 8.08562 6.37603 8.07808 6.37492 8.07039C6.37359 8.0611 6.37251 8.05177 6.37066 8.04256C6.36891 8.03374 6.3665 8.02521 6.36431 8.01657C6.36231 8.00859 6.36056 8.00058 6.35817 7.9927C6.35561 7.98422 6.35243 7.97602 6.34945 7.96774C6.34662 7.95986 6.34403 7.95193 6.34083 7.94417C6.33763 7.93641 6.33383 7.929 6.33026 7.92143C6.32649 7.91345 6.32295 7.9054 6.31876 7.89756C6.31487 7.89032 6.31046 7.88345 6.30625 7.8764C6.30166 7.86874 6.29733 7.86096 6.29233 7.85347C6.28713 7.84568 6.28134 7.83839 6.27575 7.8309C6.27107 7.82465 6.26673 7.81824 6.26173 7.81216C6.25082 7.79886 6.23932 7.78607 6.22717 7.77393C6.22707 7.77383 6.22702 7.77373 6.22693 7.77366C6.22683 7.77356 6.22673 7.77348 6.22663 7.77339C6.21449 7.76127 6.2017 7.74976 6.18842 7.73885C6.18234 7.73385 6.17593 7.72951 6.1697 7.72486C6.16221 7.71926 6.1549 7.71345 6.14711 7.70825C6.13965 7.70325 6.13189 7.69892 6.1242 7.69434C6.11716 7.69012 6.11029 7.68571 6.10302 7.68182C6.09519 7.67763 6.08713 7.67409 6.07915 7.67032C6.07159 7.66675 6.06415 7.66298 6.05641 7.65978C6.04865 7.65657 6.04075 7.65399 6.03286 7.65115C6.02456 7.64817 6.01636 7.64499 6.00786 7.64241C5.99998 7.64002 5.99197 7.63827 5.98402 7.63627C5.97537 7.63408 5.96682 7.63167 5.958 7.62992C5.94877 7.6281 5.93945 7.62701 5.93017 7.62568C5.92251 7.6246 5.91494 7.62312 5.90718 7.62236C5.88994 7.62066 5.87265 7.61975 5.85536 7.61975L5.85533 7.61975L2.17676 7.61975C1.88653 7.61975 1.65125 7.85502 1.65125 8.14525C1.65125 8.43549 1.88653 8.67076 2.17676 8.67076L4.58664 8.67076L0.75413 12.5033C0.548909 12.7085 0.548909 13.0413 0.75413 13.2465C0.959351 13.4517 1.2921 13.4517 1.49734 13.2464Z" fill="white"/>
</svg>
