<svg width="21" height="20" viewBox="0 0 21 20" fill="none" xmlns="http://www.w3.org/2000/svg">
<path d="M7.1665 1.66797V4.16797" stroke="#667085" stroke-width="1.5" stroke-miterlimit="10" stroke-linecap="round" stroke-linejoin="round"/>
<path d="M13.8335 1.66797V4.16797" stroke="#667085" stroke-width="1.5" stroke-miterlimit="10" stroke-linecap="round" stroke-linejoin="round"/>
<path d="M15.6667 17.8333C17.1394 17.8333 18.3333 16.6394 18.3333 15.1667C18.3333 13.6939 17.1394 12.5 15.6667 12.5C14.1939 12.5 13 13.6939 13 15.1667C13 16.6394 14.1939 17.8333 15.6667 17.8333Z" stroke="#667085" stroke-width="1.5" stroke-linecap="round" stroke-linejoin="round"/>
<path d="M18.8333 18.3333L18 17.5" stroke="#667085" stroke-width="1.5" stroke-linecap="round" stroke-linejoin="round"/>
<path d="M3.4165 7.57422H17.5832" stroke="#667085" stroke-width="1.5" stroke-miterlimit="10" stroke-linecap="round" stroke-linejoin="round"/>
<path d="M11.6417 18.3346H7.16667C4.25 18.3346 3 16.668 3 14.168V7.08464C3 4.58464 4.25 2.91797 7.16667 2.91797H13.8333C16.75 2.91797 18 4.58464 18 7.08464V10.8346" stroke="#667085" stroke-width="1.5" stroke-miterlimit="10" stroke-linecap="round" stroke-linejoin="round"/>
<path d="M10.4961 11.4167H10.5036" stroke="#667085" stroke-width="2" stroke-linecap="round" stroke-linejoin="round"/>
<path d="M7.41209 11.4167H7.41957" stroke="#667085" stroke-width="2" stroke-linecap="round" stroke-linejoin="round"/>
<path d="M7.41209 13.9167H7.41957" stroke="#667085" stroke-width="2" stroke-linecap="round" stroke-linejoin="round"/>
</svg>
