<svg width="16" height="16" viewBox="0 0 16 16" fill="none" xmlns="http://www.w3.org/2000/svg">
<path fill-rule="evenodd" clip-rule="evenodd" d="M10.6667 1.33398C11.0203 1.33398 11.3594 1.47446 11.6095 1.72451C11.8595 1.97456 12 2.3137 12 2.66732C12 3.02094 11.8595 3.36008 11.6095 3.61013C11.3594 3.86018 11.0203 4.00065 10.6667 4.00065C10.313 4.00065 9.97391 3.86018 9.72386 3.61013C9.47381 3.36008 9.33333 3.02094 9.33333 2.66732C9.33333 2.3137 9.47381 1.97456 9.72386 1.72451C9.97391 1.47446 10.313 1.33398 10.6667 1.33398ZM10.6667 6.66732C11.0203 6.66732 11.3594 6.80779 11.6095 7.05784C11.8595 7.30789 12 7.64703 12 8.00065C12 8.35427 11.8595 8.69341 11.6095 8.94346C11.3594 9.19351 11.0203 9.33398 10.6667 9.33398C10.313 9.33398 9.97391 9.19351 9.72386 8.94346C9.47381 8.69341 9.33333 8.35427 9.33333 8.00065C9.33333 7.64703 9.47381 7.30789 9.72386 7.05784C9.97391 6.80779 10.313 6.66732 10.6667 6.66732ZM5.33333 12.0007C5.68696 12.0007 6.02609 12.1411 6.27614 12.3912C6.52619 12.6412 6.66667 12.9804 6.66667 13.334C6.66667 13.6876 6.52619 14.0267 6.27614 14.2768C6.02609 14.5268 5.68696 14.6673 5.33333 14.6673C4.97971 14.6673 4.64057 14.5268 4.39052 14.2768C4.14048 14.0267 4 13.6876 4 13.334C4 12.9804 4.14048 12.6412 4.39052 12.3912C4.64057 12.1411 4.97971 12.0007 5.33333 12.0007ZM10.6667 12.0007C11.0203 12.0007 11.3594 12.1411 11.6095 12.3912C11.8595 12.6412 12 12.9804 12 13.334C12 13.6876 11.8595 14.0267 11.6095 14.2768C11.3594 14.5268 11.0203 14.6673 10.6667 14.6673C10.313 14.6673 9.97391 14.5268 9.72386 14.2768C9.47381 14.0267 9.33333 13.6876 9.33333 13.334C9.33333 12.9804 9.47381 12.6412 9.72386 12.3912C9.97391 12.1411 10.313 12.0007 10.6667 12.0007ZM5.33333 1.33398C5.68696 1.33398 6.02609 1.47446 6.27614 1.72451C6.52619 1.97456 6.66667 2.3137 6.66667 2.66732C6.66667 3.02094 6.52619 3.36008 6.27614 3.61013C6.02609 3.86018 5.68696 4.00065 5.33333 4.00065C4.97971 4.00065 4.64057 3.86018 4.39052 3.61013C4.14048 3.36008 4 3.02094 4 2.66732C4 2.3137 4.14048 1.97456 4.39052 1.72451C4.64057 1.47446 4.97971 1.33398 5.33333 1.33398ZM5.33333 6.66732C5.68696 6.66732 6.02609 6.80779 6.27614 7.05784C6.52619 7.30789 6.66667 7.64703 6.66667 8.00065C6.66667 8.35427 6.52619 8.69341 6.27614 8.94346C6.02609 9.19351 5.68696 9.33398 5.33333 9.33398C4.97971 9.33398 4.64057 9.19351 4.39052 8.94346C4.14048 8.69341 4 8.35427 4 8.00065C4 7.64703 4.14048 7.30789 4.39052 7.05784C4.64057 6.80779 4.97971 6.66732 5.33333 6.66732Z" fill="#98A2B3"/>
</svg>
