<svg width="17" height="18" viewBox="0 0 17 18" fill="none" xmlns="http://www.w3.org/2000/svg">
<path d="M14.1032 6.89062C14.1032 6.89062 13.6507 12.5031 13.3882 14.8673C13.2632 15.9965 12.5657 16.6581 11.4232 16.679C9.24901 16.7181 7.07234 16.7206 4.89901 16.6748C3.79984 16.6523 3.11401 15.9823 2.99151 14.8731C2.72734 12.4881 2.27734 6.89062 2.27734 6.89062" stroke="#F04B37" stroke-width="1.5" stroke-linecap="round" stroke-linejoin="round"/>
<path d="M15.2567 4.19987H1.125" stroke="#F04B37" stroke-width="1.5" stroke-linecap="round" stroke-linejoin="round"/>
<path d="M12.5335 4.20047C11.8793 4.20047 11.316 3.73797 11.1877 3.09714L10.9852 2.0838C10.8602 1.6163 10.4368 1.29297 9.95432 1.29297H6.42682C5.94432 1.29297 5.52099 1.6163 5.39599 2.0838L5.19349 3.09714C5.06516 3.73797 4.50182 4.20047 3.84766 4.20047" stroke="#F04B37" stroke-width="1.5" stroke-linecap="round" stroke-linejoin="round"/>
</svg>
