<svg width="20" height="20" viewBox="0 0 20 20" fill="none" xmlns="http://www.w3.org/2000/svg">
<g clip-path="url(#clip0_23589_73239)">
<ellipse cx="10.0003" cy="5.83333" rx="0.833333" ry="0.833333" fill="#2C6DF9"/>
<path d="M9.16699 7.58464C8.75278 7.58464 8.41699 7.92042 8.41699 8.33464C8.41699 8.74885 8.75278 9.08464 9.16699 9.08464V7.58464ZM10.0003 8.33464H10.7503C10.7503 7.92042 10.4145 7.58464 10.0003 7.58464V8.33464ZM9.25033 14.168C9.25033 14.5822 9.58611 14.918 10.0003 14.918C10.4145 14.918 10.7503 14.5822 10.7503 14.168H9.25033ZM17.5837 10.0013C17.5837 14.1895 14.1885 17.5846 10.0003 17.5846V19.0846C15.0169 19.0846 19.0837 15.0179 19.0837 10.0013H17.5837ZM10.0003 17.5846C5.81217 17.5846 2.41699 14.1895 2.41699 10.0013H0.916992C0.916992 15.0179 4.98374 19.0846 10.0003 19.0846V17.5846ZM2.41699 10.0013C2.41699 5.81314 5.81217 2.41797 10.0003 2.41797V0.917969C4.98374 0.917969 0.916992 4.98472 0.916992 10.0013H2.41699ZM10.0003 2.41797C14.1885 2.41797 17.5837 5.81314 17.5837 10.0013H19.0837C19.0837 4.98472 15.0169 0.917969 10.0003 0.917969V2.41797ZM9.16699 9.08464H10.0003V7.58464H9.16699V9.08464ZM9.25033 8.33464V14.168H10.7503V8.33464H9.25033Z" fill="#2C6DF9"/>
</g>
<defs>
<clipPath id="clip0_23589_73239">
<rect width="20" height="20" fill="white"/>
</clipPath>
</defs>
</svg>
