<svg width="16" height="16" viewBox="0 0 16 16" fill="none" xmlns="http://www.w3.org/2000/svg">
<g clip-path="url(#clip0_22855_65519)">
<path d="M4.70287 12.024C8.7459 12.024 12.0231 8.7463 12.0231 4.70327C12.0231 2.91177 11.3776 1.27294 10.3094 0.000396729C13.6096 1.05982 15.9995 4.15101 15.9995 7.80316C15.9995 12.3303 12.3299 15.9999 7.80277 15.9999C4.15061 15.9999 1.05943 13.61 0 10.3098C1.27254 11.3785 2.91189 12.024 4.70287 12.024Z" fill="#FFD93B"/>
<path d="M12.8688 1.36963C13.9652 2.76256 14.624 4.51614 14.624 6.42701C14.624 10.9542 10.9544 14.6237 6.42725 14.6237C4.51639 14.6237 2.7628 13.9649 1.36987 12.8686C2.86987 14.7728 5.19108 15.9998 7.80327 15.9998C12.3304 15.9998 16 12.3302 16 7.80303C16 5.19084 14.773 2.87014 12.8688 1.36963Z" fill="#F4C534"/>
<path d="M4.10248 3.20004L4.94674 4.91162L6.83506 5.1857L5.46877 6.51767L5.791 8.3983L4.10248 7.51049L2.41344 8.3983L2.73568 6.51767L1.36938 5.1857L3.2577 4.91162L4.10248 3.20004Z" fill="#FFD83B"/>
<path d="M8.86474 2.6524L9.30224 3.5397L10.2812 3.68161L9.57273 4.37218L9.74025 5.34656L8.86474 4.88652L7.98923 5.34656L8.15675 4.37218L7.44824 3.68161L8.42724 3.5397L8.86474 2.6524Z" fill="#FFD83B"/>
</g>
<defs>
<clipPath id="clip0_22855_65519">
<rect width="16" height="16" fill="white"/>
</clipPath>
</defs>
</svg>
