<svg width="208" height="146" viewBox="0 0 208 146" fill="none" xmlns="http://www.w3.org/2000/svg">
<path d="M31.5633 106.288C31.4996 86.7815 31.3815 38.3304 31.743 31.2182C32.1975 22.2793 44.2559 23.2727 44.2559 23.2727L56.779 112.354L40.2697 113.684C38.0513 113.862 35.8372 113.159 34.1792 111.748C32.5207 110.336 31.5706 108.359 31.5639 106.288L31.5633 106.288Z" fill="url(#paint0_linear_21004_41791)"/>
<path d="M170.668 105.703C175.962 105.184 179.719 100.956 179.06 96.2606L168.917 23.9602C168.357 19.9714 164.372 17.028 159.852 17.2659L40.9268 23.5216C37.39 23.7078 34.7697 26.4524 35.1437 29.5792L45.0715 112.611C45.4229 115.549 48.424 117.694 51.7305 117.37L170.668 105.703L170.668 105.703Z" fill="url(#paint1_linear_21004_41791)"/>
<path d="M177.711 98.5359C179.387 98.3723 180.475 96.9262 180.013 95.4694C176.955 85.8098 166.956 52.5397 164.908 24.3926C164.815 23.1091 163.558 22.1163 162.117 22.1953L43.8197 28.7059C42.1973 28.795 40.9958 30.0325 41.1294 31.4768C42.2216 43.2908 46.9169 91.9257 51.6917 108.954C51.982 109.99 53.1 110.685 54.2846 110.569L177.71 98.5354L177.711 98.5359Z" fill="#BDD0FB"/>
<path d="M174.558 97.6811C176.172 97.5238 177.218 96.1317 176.774 94.7302C173.831 85.434 164.208 53.4168 162.239 26.3298C162.149 25.0945 160.938 24.1388 159.552 24.2152L45.7098 30.4807C44.149 30.5667 42.9923 31.7575 43.1207 33.147C44.1721 44.5165 48.6906 91.3199 53.2853 107.707C53.5646 108.704 54.641 109.372 55.7807 109.261L174.559 97.6805L174.558 97.6811Z" fill="#91B3FA"/>
<path opacity="0.72" d="M97.4683 46.5934L98.4908 53.8995C98.6469 55.0149 97.7459 56.015 96.4898 56.1207L88.0507 56.8328C86.8218 56.9364 85.7132 56.1446 85.5605 55.0533L84.4854 47.3722C84.3236 46.2176 85.293 45.1959 86.5987 45.1437L95.0899 44.8066C96.2801 44.7594 97.32 45.5404 97.4671 46.593L97.4683 46.5934Z" fill="white"/>
<path opacity="0.72" d="M128.481 53.566L120.033 54.2779C118.803 54.3815 117.693 53.5892 117.54 52.4985L116.624 45.9657C116.464 44.8177 117.422 43.7995 118.721 43.7383L127.214 43.3379C128.412 43.2816 129.465 44.0647 129.613 45.1233L130.485 51.3444C130.642 52.4597 129.74 53.4597 128.482 53.5654L128.481 53.566Z" fill="white"/>
<path opacity="0.72" d="M124.227 86.7746L132.253 86.0685C133.598 85.9501 134.815 86.8153 134.982 88.0096L135.917 94.6853C136.083 95.871 135.152 96.944 133.822 97.1003L125.828 98.0391C124.457 98.2001 123.191 97.3278 123.02 96.1063L122.052 89.1984C121.882 87.985 122.86 86.8957 124.227 86.7751L124.227 86.7746Z" fill="white"/>
<path opacity="0.72" d="M138.944 94.3085L138.029 87.7817C137.863 86.589 138.824 85.5182 140.167 85.4L148.282 84.6863C149.604 84.5698 150.8 85.4208 150.964 86.594L151.845 92.8861C152.009 94.0512 151.094 95.1061 149.786 95.2595L141.705 96.208C140.358 96.3661 139.112 95.5089 138.943 94.3086L138.944 94.3085Z" fill="white"/>
<path opacity="0.72" d="M135.232 64.8256L134.481 59.4681C134.3 58.1744 135.353 57.0161 136.814 56.903L144.58 56.3009C145.994 56.191 147.264 57.1038 147.44 58.3564L148.157 63.4767C148.334 64.7393 147.334 65.8796 145.914 66.0337L138.182 66.8735C136.739 67.0304 135.413 66.1098 135.233 64.8266L135.232 64.8256Z" fill="white"/>
<path opacity="0.72" d="M137.224 80.4078L136.078 72.2122C135.914 71.039 136.84 69.9794 138.156 69.8358L146.048 68.9764C147.487 68.8194 148.81 69.74 148.989 71.0233L150.145 79.2888C150.313 80.4897 149.339 81.5652 147.988 81.6725L139.879 82.3175C138.566 82.4217 137.387 81.573 137.224 80.4078Z" fill="white"/>
<path opacity="0.72" d="M112.492 54.8953L104.049 55.6073C102.819 55.7109 101.71 54.9191 101.557 53.8278L100.561 46.7118C100.4 45.5643 101.358 44.5456 102.656 44.4843L111.143 44.084C112.341 44.0277 113.393 44.8108 113.541 45.8699L114.494 52.6737C114.65 53.7891 113.748 54.7891 112.492 54.8948L112.492 54.8953Z" fill="white"/>
<path opacity="0.72" d="M121.212 81.6133L120.139 73.9482C119.973 72.7544 120.916 71.6762 122.255 71.5308L130.252 70.6603C131.613 70.5121 132.864 71.382 133.034 72.5959L134.138 80.4933C134.31 81.7148 133.319 82.8094 131.943 82.9186L123.914 83.5569C122.578 83.6629 121.378 82.7996 121.212 81.6139L121.212 81.6133Z" fill="white"/>
<path d="M121.71 81.5684C121.71 81.5664 121.709 81.5645 121.709 81.5625L121.709 81.562L120.636 73.897C120.636 73.8969 120.636 73.8969 120.636 73.8968C120.515 73.0266 121.207 72.1479 122.327 72.0263L122.327 72.0263L130.324 71.1557L130.252 70.6603L130.324 71.1557C131.465 71.0315 132.413 71.7601 132.537 72.6472L132.537 72.6473L133.642 80.5447L133.642 80.5448C133.766 81.4345 133.038 82.3303 131.885 82.4218L131.885 82.4218L123.856 83.0601C123.856 83.0601 123.856 83.0601 123.856 83.0601C122.741 83.1486 121.834 82.4327 121.71 81.5684Z" stroke="#FF4942"/>
<path opacity="0.72" d="M104.049 59.4032L113.278 58.687C114.291 58.6082 115.201 59.2629 115.327 60.1606L116.359 67.5304C116.486 68.4361 115.769 69.2532 114.752 69.3638L105.562 70.3626C104.528 70.475 103.578 69.815 103.449 68.8946L102.377 61.2423C102.247 60.3144 103.002 59.4842 104.049 59.4027L104.049 59.4032Z" fill="white"/>
<path opacity="0.72" d="M99.375 61.8016L100.358 68.8206C100.517 69.9586 99.6167 70.9865 98.339 71.1254L90.1071 72.0207C88.8079 72.1618 87.6147 71.3325 87.4527 70.1759L86.4344 62.9035C86.2713 61.7374 87.2188 60.6935 88.5339 60.5913L96.8014 59.9489C98.074 59.85 99.2168 60.6726 99.375 61.8016Z" fill="white"/>
<path opacity="0.72" d="M130.694 67.657L121.5 68.6562C120.466 68.7687 119.515 68.1085 119.386 67.1882L118.381 60.0197C118.251 59.0918 119.006 58.2615 120.054 58.1801L129.288 57.4633C130.301 57.3846 131.212 58.0392 131.338 58.9374L132.302 65.8236C132.429 66.7293 131.712 67.5469 130.694 67.657Z" fill="white"/>
<path opacity="0.72" d="M106.314 73.234L114.314 72.3635C115.676 72.2153 116.928 73.0852 117.097 74.2991L118.139 81.7395C118.31 82.9609 117.318 84.0555 115.942 84.1647L107.91 84.803C106.574 84.909 105.373 84.0457 105.207 82.8599L104.198 75.6518C104.031 74.458 104.975 73.3798 106.315 73.2344L106.314 73.234Z" fill="white"/>
<path d="M107.635 73.5945L107.634 73.5937L114.386 72.859C115.528 72.7347 116.476 73.4635 116.6 74.3504L116.6 74.3505L117.642 81.7908L117.642 81.7909C117.766 82.6803 117.038 83.5764 115.885 83.6679L115.885 83.6679L107.852 84.3061C107.852 84.3061 107.852 84.3061 107.852 84.3061C106.734 84.3949 105.825 83.6753 105.704 82.8086L105.207 82.8599L105.704 82.8086L104.695 75.6006C104.695 75.6005 104.695 75.6005 104.695 75.6005C104.573 74.7305 105.266 73.8516 106.387 73.7299L107.635 73.5945Z" stroke="#FF4942"/>
<path opacity="0.72" d="M90.0953 74.9706L98.6593 74.0395C99.8659 73.9082 100.975 74.6787 101.125 75.7534L102.174 83.2439C102.325 84.3256 101.447 85.2948 100.228 85.3915L91.6285 86.0743C90.445 86.1682 89.3804 85.4039 89.2335 84.3538L88.2193 77.1122C88.0717 76.0551 88.9073 75.1004 90.0947 74.9712L90.0953 74.9706Z" fill="white"/>
<path opacity="0.72" d="M143.278 52.2408L136.862 52.7812C135.155 52.925 133.616 51.8266 133.404 50.3142L132.746 45.6222C132.547 44.2043 133.732 42.9466 135.338 42.8709L142.509 42.5329C144.136 42.4564 145.565 43.5193 145.767 44.9563L146.316 48.8748C146.552 50.5647 145.185 52.0807 143.278 52.2413L143.278 52.2408Z" fill="white"/>
<path opacity="0.72" d="M154.037 86.5592C153.858 85.2753 154.888 84.1229 156.329 83.9961L159.11 83.7505C161.224 83.5641 163.097 84.6736 163.316 86.241L163.949 90.7774C164.166 92.3323 162.675 93.7684 160.587 94.0143L157.611 94.3648C156.269 94.5229 155.028 93.666 154.86 92.4651L154.036 86.5593L154.037 86.5592Z" fill="white"/>
<path opacity="0.72" d="M62.8302 92.0808L68.301 91.5979C69.643 91.4795 70.8565 92.3457 71.0236 93.5406L72.2105 102.041C72.3761 103.228 71.4473 104.302 70.1205 104.458L64.6928 105.097C62.5285 105.352 60.559 104.233 60.334 102.622L59.3161 95.3326C59.0932 93.734 60.6744 92.271 62.8301 92.0802L62.8302 92.0808Z" fill="white"/>
<path opacity="0.72" d="M158.748 80.8355L156.039 81.0515C154.634 81.1635 153.372 80.2506 153.197 78.9962L152.039 70.6634C151.863 69.4004 152.856 68.2599 154.265 68.1058L156.981 67.8084C159.123 67.574 161.057 68.6901 161.28 70.2889L162.294 77.5789C162.518 79.1908 160.915 80.6621 158.748 80.835L158.748 80.8355Z" fill="white"/>
<path opacity="0.72" d="M156.881 64.8692L153.468 65.241C152.38 65.3595 151.381 64.6633 151.245 63.6926L150.404 57.675C150.267 56.6962 151.062 55.8204 152.163 55.7345L155.621 55.4653C157.719 55.3021 159.562 56.4081 159.779 57.9598L160.292 61.6269C160.511 63.1943 158.992 64.6385 156.881 64.8687L156.881 64.8692Z" fill="white"/>
<path opacity="0.72" d="M57.3243 46.4796L62.838 46.2187C64.0802 46.1601 65.1712 46.975 65.3253 48.0764L66.4977 56.4724C66.6598 57.6326 65.725 58.6732 64.421 58.7835L58.7676 59.2618C56.6593 59.4401 54.7958 58.3318 54.5776 56.7699L53.597 49.7468C53.3652 48.0864 55.0766 46.5866 57.3244 46.4801L57.3243 46.4796Z" fill="white"/>
<path opacity="0.72" d="M108.24 88.1618L116.263 87.4552C117.607 87.3369 118.823 88.2025 118.99 89.3963L119.988 96.5286C120.154 97.7143 119.224 98.7873 117.895 98.9436L109.904 99.8824C108.535 100.043 107.268 99.1716 107.098 97.9496L106.067 90.5847C105.897 89.3713 106.874 88.2819 108.24 88.1613L108.24 88.1618Z" fill="white"/>
<path opacity="0.72" d="M59.2174 62.8259L64.789 62.3923C66.059 62.2934 67.1994 63.1161 67.3574 64.2452L68.4734 72.2324C68.6324 73.3704 67.7345 74.3983 66.4588 74.5373L60.8846 75.145C58.7333 75.3794 56.7905 74.2636 56.5668 72.6651L55.6471 66.0835C55.4216 64.4693 57.036 62.9967 59.2176 62.8269L59.2174 62.8259Z" fill="white"/>
<path opacity="0.72" d="M60.9793 78.0837L66.7856 77.4519C67.9922 77.3207 69.1009 78.0912 69.2511 79.1659L70.1722 85.7425C70.3238 86.8242 69.4454 87.7935 68.2262 87.8901L62.3724 88.3544C60.2679 88.5223 58.4154 87.4154 58.1981 85.8611L57.5627 81.3252C57.3433 79.7575 58.8654 78.3138 60.9798 78.0836L60.9793 78.0837Z" fill="white"/>
<path opacity="0.72" d="M85.1862 77.46L86.1715 84.4934C86.3232 85.5751 85.4448 86.5443 84.2245 86.641L75.6214 87.3238C74.4367 87.4177 73.3722 86.6534 73.2253 85.6033L72.2751 78.8186C72.1268 77.7616 72.9634 76.8069 74.1514 76.6777L82.7194 75.7466C83.9266 75.6153 85.0359 76.3858 85.1862 77.4605L85.1862 77.46Z" fill="white"/>
<path opacity="0.72" d="M76.2704 90.9267L84.2818 90.221C85.6259 90.1025 86.8412 90.9687 87.0086 92.1635L88.133 100.206C88.299 101.393 87.3687 102.467 86.0398 102.624L78.0604 103.562C76.691 103.723 75.4246 102.85 75.254 101.627L74.097 93.3519C73.9273 92.1374 74.9042 91.0469 76.2697 90.9263L76.2704 90.9267Z" fill="white"/>
<path opacity="0.72" d="M155.048 51.2685L151.695 51.5522C150.624 51.6428 149.657 50.9511 149.524 49.9985L148.702 44.1126C148.562 43.1107 149.396 42.2216 150.528 42.1678L154.094 41.9994C156.135 41.9028 157.883 42.9975 158.093 44.504L158.584 48.0148C158.808 49.6188 157.214 51.0852 155.048 51.2685Z" fill="white"/>
<path opacity="0.72" d="M92.2571 89.5391L100.138 88.845C101.557 88.7201 102.841 89.6342 103.017 90.8954L104.061 98.3615C104.227 99.5483 103.297 100.622 101.967 100.779L93.9848 101.717C92.6148 101.878 91.3479 101.006 91.1771 99.7826L90.0834 91.9647C89.9136 90.7502 90.891 89.6597 92.2577 89.5395L92.2571 89.5391Z" fill="white"/>
<path opacity="0.72" d="M81.3941 47.3253L82.4872 55.1377C82.6495 56.2979 81.7127 57.3384 80.407 57.4486L72.1545 58.1453C70.8772 58.2533 69.7244 57.429 69.5656 56.2944L68.4303 48.1769C68.2635 46.983 69.2588 45.9236 70.608 45.8597L78.9032 45.4676C80.1474 45.409 81.2403 46.2239 81.3947 47.3252L81.3941 47.3253Z" fill="white"/>
<path opacity="0.72" d="M83.3645 63.0238L84.4147 70.527C84.5739 71.665 83.6741 72.6929 82.3971 72.8319L74.1692 73.7271C72.8707 73.8683 71.678 73.0389 71.5166 71.8823L70.4314 64.1262C70.2683 62.96 71.2154 61.9162 72.5299 61.8139L80.7933 61.1715C82.0653 61.0726 83.2075 61.8953 83.3656 63.0237L83.3645 63.0238Z" fill="white"/>
<path opacity="0.72" d="M154.288 35.5941L154.195 38.1035C154.165 38.907 153.486 39.5641 152.592 39.6521L152.462 39.6651C151.459 39.7643 150.545 39.1169 150.42 38.2195L150.068 35.6866C149.931 34.7047 150.791 33.8518 151.896 33.8724L152.472 33.883C153.501 33.902 154.322 34.6753 154.288 35.5941Z" fill="white"/>
<path opacity="0.72" d="M141.114 35.9768L141.021 38.4863C140.991 39.2898 140.312 39.9463 139.418 40.0349L139.287 40.0479C138.284 40.1471 137.37 39.4997 137.245 38.6023L136.893 36.0694C136.757 35.0875 137.616 34.2346 138.722 34.2552L139.297 34.2658C140.326 34.2848 141.147 35.0582 141.113 35.9769L141.114 35.9768Z" fill="white"/>
<path opacity="0.72" d="M125.004 37.4222L124.911 39.9316C124.882 40.7351 124.202 41.3917 123.309 41.4802L123.178 41.4932C122.175 41.5925 121.261 40.945 121.136 40.0476L120.784 37.5147C120.647 36.5328 121.507 35.6799 122.612 35.7006L123.188 35.7111C124.217 35.7302 125.038 36.5035 125.004 37.4222L125.004 37.4222Z" fill="white"/>
<path opacity="0.72" d="M109.228 38.0315L109.135 40.541C109.105 41.3445 108.426 42.001 107.532 42.0896L107.401 42.1026C106.399 42.2018 105.484 41.5544 105.36 40.657L105.007 38.1241C104.871 37.1422 105.731 36.2893 106.836 36.3099L107.411 36.3205C108.441 36.3395 109.261 37.1128 109.227 38.0316L109.228 38.0315Z" fill="white"/>
<path opacity="0.72" d="M92.9048 37.4847L92.8118 39.9941C92.7821 40.7976 92.102 41.4542 91.2089 41.5427L91.078 41.5557C90.0753 41.655 89.1611 41.0075 89.0363 40.1101L88.684 37.5772C88.5477 36.5953 89.4074 35.7424 90.5125 35.7631L91.0881 35.7736C92.1175 35.7927 92.9382 36.566 92.9042 37.4847L92.9048 37.4847Z" fill="white"/>
<path opacity="0.72" d="M75.8397 39.1331L75.7468 41.6426C75.7171 42.4461 75.037 43.1027 74.1439 43.1912L74.0136 43.2041C73.0109 43.3034 72.0967 42.656 71.9718 41.7586L71.6195 39.2257C71.4833 38.2438 72.343 37.3908 73.4481 37.4115L74.0237 37.422C75.053 37.4411 75.8732 38.2145 75.8397 39.1331Z" fill="white"/>
<path opacity="0.72" d="M61.3784 39.9925L61.2854 42.5019C61.2557 43.3054 60.5757 43.9625 59.6825 44.0505L59.5517 44.0635C58.549 44.1628 57.6348 43.5154 57.5099 42.6179L57.1576 40.085C57.0213 39.1031 57.8811 38.2502 58.9862 38.2709L59.5618 38.2814C60.5911 38.3005 61.4119 39.0738 61.3778 39.9925L61.3784 39.9925Z" fill="white"/>
<path d="M43.437 112.009C43.5924 111.996 43.7064 111.868 43.6924 111.721L39.2416 64.899C39.2276 64.7518 39.0898 64.6414 38.9332 64.6529L38.9321 64.653C38.7762 64.6655 38.6623 64.794 38.6762 64.9407L43.1269 111.763C43.141 111.91 43.2788 112.02 43.4354 112.009L43.4375 112.009L43.437 112.009Z" fill="#BDD0FB"/>
<path d="M38.0658 54.4321C38.2212 54.4195 38.3349 54.2908 38.3207 54.1441L36.7362 37.7911C36.722 37.6438 36.5839 37.5336 36.4273 37.5453L36.4252 37.5455C36.2697 37.5581 36.1561 37.6867 36.1703 37.8334L37.7547 54.1865C37.769 54.3337 37.9071 54.4439 38.0636 54.4322L38.0658 54.4321Z" fill="#BDD0FB"/>
<path d="M153.685 29.3691C153.915 27.8007 152.636 26.3495 150.828 26.1278C149.019 25.9061 147.367 26.9979 147.136 28.5663C146.906 30.1348 148.185 31.586 149.993 31.8077C151.801 32.0293 153.454 30.9376 153.685 29.3691Z" fill="url(#paint2_linear_21004_41791)"/>
<path d="M126.329 32.6595C127.465 31.4451 127.251 29.6398 125.85 28.6272C124.45 27.6146 122.393 27.7782 121.258 28.9926C120.122 30.207 120.337 32.0123 121.737 33.0248C123.138 34.0374 125.194 33.8738 126.329 32.6595Z" fill="url(#paint3_linear_21004_41791)"/>
<path d="M97.9238 34.8688C99.6117 34.37 100.504 32.7504 99.9163 31.2515C99.3289 29.7525 97.4843 28.9417 95.7964 29.4405C94.1085 29.9394 93.2165 31.5589 93.8039 33.0579C94.3914 34.5569 96.2359 35.3677 97.9238 34.8688Z" fill="url(#paint4_linear_21004_41791)"/>
<path d="M71.1212 35.8637C72.825 35.4091 73.7706 33.8137 73.2331 32.3005C72.6957 30.7873 70.8788 29.9291 69.1749 30.3838C67.4711 30.8385 66.5255 32.4338 67.063 33.947C67.6004 35.4602 69.4173 36.3184 71.1212 35.8637Z" fill="url(#paint5_linear_21004_41791)"/>
<path d="M65.2834 13.5761C70.6255 14.1825 71.7865 26.8261 72.0379 31.9781C72.0973 33.1903 71.1291 34.2113 69.8172 34.322C69.4531 34.3527 69.0871 34.2376 68.8112 34.0086C68.5352 33.7796 68.375 33.4559 68.3701 33.1191C68.3131 29.2141 67.81 17.9971 63.9 17.7247C63.9 17.7247 61.0929 17.5087 61.2727 22.4476L58.299 22.6984C58.299 22.6984 58.5674 12.814 65.2834 13.5761Z" fill="#B7BAFF"/>
<path d="M91.9542 12.1505C97.2963 12.7568 98.4578 25.405 98.7092 30.557C98.7686 31.7691 97.8007 32.7922 96.4888 32.9029C96.1248 32.9336 95.7589 32.8195 95.4829 32.5905C95.2069 32.3615 95.0469 32.0383 95.042 31.7014C94.985 27.7965 94.4807 16.5704 90.5708 16.2985C90.5708 16.2985 87.7765 16.1807 87.9424 21.0128L84.9687 21.2636C84.9687 21.2636 85.2383 11.3883 91.9542 12.1505Z" fill="#B7BAFF"/>
<path d="M118.624 10.737C123.966 11.3434 125.128 23.9945 125.379 29.146C125.439 30.3581 124.471 31.3828 123.159 31.4934C122.795 31.5241 122.429 31.411 122.153 31.182C121.878 30.953 121.717 30.6303 121.713 30.2935C121.656 26.3885 121.151 15.1569 117.241 14.8845C117.241 14.8845 114.456 14.8315 114.625 19.6883L111.638 19.8441C111.638 19.8441 111.908 9.97434 118.624 10.7365L118.624 10.737Z" fill="url(#paint6_linear_21004_41791)"/>
<path d="M145.304 9.41241C150.646 10.0188 151.808 22.6765 152.06 27.8285C152.119 29.0407 151.152 30.0688 149.84 30.1794C149.476 30.2101 149.11 30.0986 148.834 29.8695C148.558 29.6405 148.399 29.3183 148.394 28.982C148.337 25.0771 147.83 13.8324 143.92 13.5599C143.92 13.5599 141.123 13.423 141.289 18.2557L138.316 18.5065C138.316 18.5065 138.588 8.65028 145.304 9.41241Z" fill="url(#paint7_linear_21004_41791)"/>
<path d="M138.126 67.1729C137.373 67.2326 136.632 67.0372 136.029 66.6184C135.399 66.1818 134.999 65.5559 134.901 64.8563L134.15 59.4987C134.051 58.793 134.271 58.1027 134.771 57.554C135.268 57.0064 135.98 56.6705 136.774 56.6076L136.779 56.6072L144.544 56.0051C146.125 55.8825 147.571 56.9217 147.767 58.322L148.485 63.4423C148.684 64.8587 147.549 66.1514 145.957 66.3248L138.225 67.1641C138.192 67.1677 138.159 67.1708 138.126 67.1734L138.126 67.1729ZM136.842 57.1948C136.227 57.2435 135.676 57.5036 135.29 57.9275C134.904 58.3525 134.733 58.8874 134.809 59.4333L135.56 64.7908C135.636 65.3327 135.947 65.8173 136.434 66.1553C136.921 66.4938 137.525 66.6442 138.135 66.5777L145.866 65.7384C147.1 65.6041 147.978 64.6031 147.824 63.5063L147.107 58.386C146.954 57.3018 145.835 56.497 144.611 56.5919L136.845 57.194L136.841 57.1943L136.842 57.1948Z" fill="#FF4942"/>
<path d="M105.535 70.6606C104.971 70.7053 104.417 70.5591 103.966 70.2457C103.495 69.9187 103.195 69.4494 103.122 68.9252L102.05 61.2729C101.976 60.7446 102.141 60.2274 102.514 59.8162C102.886 59.406 103.419 59.1544 104.013 59.1073L104.017 59.107L113.247 58.3902C114.43 58.2979 115.512 59.0766 115.659 60.1252L116.691 67.4949C116.84 68.556 115.99 69.5244 114.799 69.6539L105.609 70.6527C105.584 70.6556 105.559 70.6576 105.535 70.6596L105.535 70.6606ZM104.081 59.695C103.666 59.7279 103.294 59.9038 103.033 60.1902C102.773 60.4772 102.657 60.8385 102.709 61.208L103.781 68.8602C103.832 69.2267 104.042 69.5541 104.371 69.7827C104.7 70.0117 105.107 70.1111 105.519 70.0677L114.709 69.069C115.541 68.9781 116.135 68.3014 116.031 67.5599L114.999 60.1902C114.896 59.4573 114.14 58.9135 113.313 58.9775L104.084 59.6943L104.081 59.6945L104.081 59.695Z" fill="#FF4942"/>
<path d="M121.473 68.9576C120.91 69.0023 120.355 68.8561 119.903 68.5428C119.432 68.2157 119.132 67.7465 119.058 67.2223L118.054 60.0542C117.98 59.5259 118.145 59.0087 118.518 58.5974C118.891 58.1872 119.424 57.9357 120.018 57.8885L120.022 57.8882L129.256 57.1715C130.44 57.0797 131.522 57.8585 131.669 58.907L132.634 65.7931C132.783 66.8541 131.934 67.8225 130.742 67.952L121.547 68.9507C121.523 68.9537 121.498 68.9556 121.474 68.9576L121.473 68.9576ZM120.086 58.4757C119.671 58.5086 119.299 58.6845 119.038 58.9709C118.777 59.2584 118.662 59.6197 118.713 59.9887L119.718 67.1573C119.769 67.5237 119.979 67.8512 120.308 68.0797C120.637 68.3083 121.044 68.4056 121.457 68.3648L130.651 67.3661C131.484 67.2757 132.077 66.599 131.973 65.8576L131.008 58.9715C130.905 58.2387 130.149 57.6948 129.322 57.7588L120.088 58.4756L120.085 58.4758L120.086 58.4757Z" fill="#FF4942"/>
<path d="M89.5933 72.184C89.0299 72.2287 88.4753 72.0826 88.0243 71.7692C87.5534 71.4421 87.2536 70.9729 87.1802 70.4486L86.1084 62.7964C86.0345 62.2681 86.1993 61.7509 86.5726 61.3396C86.9449 60.9294 87.4774 60.6778 88.072 60.6307L88.076 60.6304L97.3053 59.9136C98.4883 59.8214 99.5704 60.6001 99.7171 61.6486L100.749 69.0184C100.898 70.0794 100.049 71.0478 98.8576 71.1773L89.6678 72.1761C89.643 72.1791 89.6181 72.1811 89.5937 72.183L89.5933 72.184ZM88.1396 61.2184C87.7241 61.2514 87.3521 61.4272 87.0919 61.7137C86.8312 62.0006 86.7158 62.362 86.7677 62.7314L87.8396 70.3837C87.8907 70.7501 88.1002 71.0776 88.4293 71.3061C88.7584 71.5351 89.1652 71.6345 89.5777 71.5912L98.7675 70.5924C99.6 70.5015 100.193 69.8248 100.089 69.0834L99.0572 61.7136C98.9545 60.9808 98.1987 60.4369 97.3716 60.5009L88.1423 61.2177L88.1396 61.2184Z" fill="#FF4942"/>
<ellipse cx="105.393" cy="133.382" rx="65.4643" ry="7.20988" fill="#D1E0FF"/>
<path d="M93.4024 67.0907C93.3157 67.0964 93.2471 67.0783 93.1966 67.0364C93.1455 66.9888 93.1164 66.9227 93.1091 66.8382C93.0922 66.6411 93.1031 66.4563 93.1419 66.2838C93.1869 66.1052 93.2616 65.9218 93.3661 65.7336C93.4772 65.545 93.6305 65.3394 93.8258 65.1169C93.978 64.9368 94.0984 64.7787 94.1873 64.6426C94.2761 64.5064 94.3355 64.3778 94.3653 64.2569C94.4013 64.1299 94.4139 64.0044 94.4033 63.8805C94.3829 63.644 94.267 63.4647 94.0553 63.3428C93.8433 63.2153 93.5606 63.1632 93.2073 63.1866C92.9006 63.207 92.6207 63.2652 92.3675 63.3613C92.1205 63.4513 91.8836 63.5803 91.6567 63.7483C91.5616 63.8113 91.4707 63.8456 91.384 63.8514C91.304 63.8567 91.2357 63.8414 91.1789 63.8055C91.1222 63.7696 91.0812 63.7213 91.0559 63.6607C91.0372 63.5996 91.0416 63.5342 91.0691 63.4644C91.1033 63.3942 91.1647 63.3278 91.2531 63.2653C91.4981 63.0734 91.7928 62.9151 92.1374 62.7903C92.482 62.6655 92.8342 62.5911 93.1942 62.5672C93.5742 62.542 93.9123 62.5763 94.2086 62.6699C94.5111 62.7575 94.7511 62.8973 94.9285 63.0895C95.1055 63.276 95.2056 63.5044 95.2288 63.7748C95.2438 63.9494 95.2284 64.1203 95.1824 64.2877C95.136 64.4493 95.0532 64.6163 94.9339 64.7885C94.8213 64.9602 94.6573 65.158 94.4419 65.3819C94.2508 65.5758 94.0987 65.7558 93.9856 65.9219C93.872 66.0824 93.7882 66.2381 93.7342 66.3889C93.6863 66.5337 93.6591 66.6856 93.6527 66.8447C93.6519 66.9127 93.63 66.9708 93.5873 67.019C93.544 67.0615 93.4824 67.0854 93.4024 67.0907ZM93.5261 68.6459C93.3595 68.6569 93.2192 68.6238 93.1052 68.5464C92.9975 68.4629 92.9378 68.3535 92.9262 68.2184C92.9146 68.0832 92.9551 67.97 93.0478 67.8789C93.1467 67.7817 93.2795 67.7276 93.4462 67.7166C93.6128 67.7055 93.7467 67.7419 93.8477 67.8259C93.955 67.9037 94.0144 68.0102 94.0261 68.1454C94.0377 68.2806 93.9974 68.3965 93.9052 68.4933C93.8191 68.584 93.6928 68.6348 93.5261 68.6459Z" fill="#FF4942" stroke="#FF4942" stroke-width="0.2"/>
<path d="M141.118 62.7411C141.049 62.7457 140.994 62.7313 140.953 62.6977C140.912 62.6596 140.889 62.6068 140.883 62.5393C140.87 62.3817 140.879 62.2339 140.91 62.0959C140.945 61.9531 141.005 61.8065 141.089 61.656C141.178 61.5052 141.3 61.3408 141.456 61.1628C141.578 61.0189 141.674 60.8925 141.745 60.7836C141.816 60.6747 141.864 60.5719 141.888 60.4752C141.917 60.3737 141.927 60.2733 141.918 60.1743C141.902 59.9851 141.809 59.8418 141.64 59.7443C141.47 59.6423 141.244 59.6007 140.962 59.6194C140.717 59.6357 140.493 59.6822 140.29 59.7591C140.093 59.8311 139.903 59.9342 139.722 60.0685C139.646 60.1189 139.573 60.1464 139.504 60.1509C139.44 60.1552 139.385 60.143 139.34 60.1143C139.295 60.0856 139.262 60.047 139.242 59.9985C139.227 59.9497 139.23 59.8973 139.252 59.8415C139.279 59.7854 139.329 59.7323 139.399 59.6823C139.595 59.5289 139.831 59.4023 140.106 59.3025C140.382 59.2027 140.664 59.1433 140.951 59.1242C141.255 59.104 141.526 59.1314 141.762 59.2062C142.004 59.2763 142.196 59.3881 142.338 59.5417C142.48 59.6909 142.56 59.8735 142.578 60.0897C142.59 60.2293 142.578 60.366 142.541 60.4998C142.504 60.6291 142.438 60.7626 142.342 60.9003C142.252 61.0376 142.121 61.1958 141.949 61.3748C141.796 61.5298 141.675 61.6738 141.584 61.8066C141.493 61.9349 141.426 62.0594 141.383 62.18C141.345 62.2958 141.323 62.4173 141.318 62.5444C141.317 62.5988 141.3 62.6453 141.266 62.6838C141.231 62.7178 141.182 62.7369 141.118 62.7411ZM141.217 63.9847C141.083 63.9935 140.971 63.967 140.88 63.9051C140.794 63.8383 140.746 63.7509 140.737 63.6428C140.728 63.5347 140.76 63.4443 140.834 63.3714C140.913 63.2937 141.02 63.2504 141.153 63.2416C141.286 63.2327 141.393 63.2619 141.474 63.329C141.56 63.3912 141.607 63.4764 141.617 63.5845C141.626 63.6926 141.594 63.7853 141.52 63.8627C141.451 63.9352 141.35 63.9759 141.217 63.9847Z" fill="#FF4942" stroke="#FF4942" stroke-width="0.2"/>
<path d="M108.531 77.1836L113.291 80.3224" stroke="#FF4942" stroke-linecap="round"/>
<path d="M112.699 76.6641L109.124 80.8436" stroke="#FF4942" stroke-linecap="round"/>
<path d="M124.768 75.6172L129.528 78.756" stroke="#FF4942" stroke-linecap="round"/>
<path d="M128.936 75.0977L125.361 79.2772" stroke="#FF4942" stroke-linecap="round"/>
<defs>
<linearGradient id="paint0_linear_21004_41791" x1="147.198" y1="7.72566" x2="59.6093" y2="71.9893" gradientUnits="userSpaceOnUse">
<stop stop-color="#4F52FF"/>
<stop offset="1" stop-color="#4042E2"/>
</linearGradient>
<linearGradient id="paint1_linear_21004_41791" x1="58.5348" y1="86.7444" x2="187.354" y2="8.59195" gradientUnits="userSpaceOnUse">
<stop stop-color="#4F52FF"/>
<stop offset="1" stop-color="#4042E2"/>
</linearGradient>
<linearGradient id="paint2_linear_21004_41791" x1="145.065" y1="21.8371" x2="152.752" y2="35.5986" gradientUnits="userSpaceOnUse">
<stop stop-color="#4F52FF"/>
<stop offset="1" stop-color="#4042E2"/>
</linearGradient>
<linearGradient id="paint3_linear_21004_41791" x1="118.518" y1="23.7024" x2="126.212" y2="37.3828" gradientUnits="userSpaceOnUse">
<stop stop-color="#4F52FF"/>
<stop offset="1" stop-color="#4042E2"/>
</linearGradient>
<linearGradient id="paint4_linear_21004_41791" x1="91.6411" y1="25.0306" x2="99.3497" y2="38.6539" gradientUnits="userSpaceOnUse">
<stop stop-color="#4F52FF"/>
<stop offset="1" stop-color="#4042E2"/>
</linearGradient>
<linearGradient id="paint5_linear_21004_41791" x1="64.9273" y1="26.0005" x2="72.6371" y2="39.6207" gradientUnits="userSpaceOnUse">
<stop stop-color="#4F52FF"/>
<stop offset="1" stop-color="#4042E2"/>
</linearGradient>
<linearGradient id="paint6_linear_21004_41791" x1="101.374" y1="-4.73775" x2="130.39" y2="43.9648" gradientUnits="userSpaceOnUse">
<stop stop-color="#FF928E"/>
<stop offset="1" stop-color="#FE7062"/>
</linearGradient>
<linearGradient id="paint7_linear_21004_41791" x1="128.05" y1="-6.07268" x2="157.079" y2="42.6517" gradientUnits="userSpaceOnUse">
<stop stop-color="#FF928E"/>
<stop offset="1" stop-color="#FE7062"/>
</linearGradient>
</defs>
</svg>
