<svg width="24" height="24" viewBox="0 0 24 24" fill="none" xmlns="http://www.w3.org/2000/svg">
<rect width="24" height="24" rx="12" fill="#FEF3F2"/>
<g clip-path="url(#clip0_24830_101060)">
<path d="M9.96408 7.60589H9.85693C9.91586 7.60589 9.96408 7.55767 9.96408 7.49874V7.60589H14.0355V7.49874C14.0355 7.55767 14.0837 7.60589 14.1426 7.60589H14.0355V8.57017H14.9998V7.49874C14.9998 7.02598 14.6154 6.6416 14.1426 6.6416H9.85693C9.38417 6.6416 8.99979 7.02598 8.99979 7.49874V8.57017H9.96408V7.60589ZM16.7141 8.57017H7.28551C7.04845 8.57017 6.85693 8.76169 6.85693 8.99874V9.42732C6.85693 9.48624 6.90515 9.53446 6.96408 9.53446H7.77301L8.10381 16.5389C8.12524 16.9956 8.50292 17.3559 8.95961 17.3559H15.04C15.498 17.3559 15.8743 16.997 15.8958 16.5389L16.2266 9.53446H17.0355C17.0944 9.53446 17.1426 9.48624 17.1426 9.42732V8.99874C17.1426 8.76169 16.9511 8.57017 16.7141 8.57017ZM14.9368 16.3916H9.06274L8.73863 9.53446H15.261L14.9368 16.3916Z" fill="#EB5146"/>
</g>
<defs>
<clipPath id="clip0_24830_101060">
<rect width="12" height="12" fill="white" transform="translate(6 6)"/>
</clipPath>
</defs>
</svg>
