<svg width="35" height="34" viewBox="0 0 35 34" fill="none" xmlns="http://www.w3.org/2000/svg">
<g filter="url(#filter0_d_24455_95590)">
<path d="M17.5 29C24.1274 29 29.5 23.6274 29.5 17C29.5 10.3726 24.1274 5 17.5 5C10.8726 5 5.5 10.3726 5.5 17C5.5 23.6274 10.8726 29 17.5 29Z" fill="white"/>
</g>
<path d="M22.5847 15.6417V14.6893C22.5847 13.7479 22.5847 13.2773 22.4015 12.9177C22.2404 12.6015 21.9833 12.3443 21.667 12.1832C21.3075 12 20.8368 12 19.8955 12H15.1893C14.2479 12 13.7773 12 13.4177 12.1832C13.1015 12.3443 12.8443 12.6015 12.6832 12.9177C12.5 13.2773 12.5 13.7479 12.5 14.6893V19.3955C12.5 20.3368 12.5 20.8074 12.6832 21.167C12.8443 21.4832 13.1015 21.7404 13.4177 21.9015C13.7773 22.0847 14.2479 22.0847 15.1893 22.0847H16.1417M20.5601 20.2422L19.6086 22.0092C19.453 22.2981 19.3753 22.4425 19.2805 22.4802C19.1982 22.5129 19.1053 22.5048 19.0299 22.4583C18.9431 22.4047 18.8915 22.249 18.7884 21.9376L17.2625 17.3288C17.1722 17.0561 17.127 16.9198 17.1595 16.8289C17.1877 16.7499 17.2499 16.6877 17.329 16.6595C17.4198 16.627 17.5561 16.6722 17.8288 16.7624L22.4376 18.2884C22.749 18.3915 22.9047 18.4431 22.9583 18.5299C23.0048 18.6053 23.0129 18.6982 22.9802 18.7805C22.9425 18.8753 22.7981 18.953 22.5092 19.1086L20.7422 20.06C20.6982 20.0837 20.6762 20.0956 20.6569 20.1108C20.6398 20.1243 20.6243 20.1398 20.6108 20.1569C20.5956 20.1762 20.5838 20.1982 20.5601 20.2422Z" stroke="#12B76A" stroke-linecap="round" stroke-linejoin="round"/>
<defs>
<filter id="filter0_d_24455_95590" x="0.5" y="0" width="34" height="34" filterUnits="userSpaceOnUse" color-interpolation-filters="sRGB">
<feFlood flood-opacity="0" result="BackgroundImageFix"/>
<feColorMatrix in="SourceAlpha" type="matrix" values="0 0 0 0 0 0 0 0 0 0 0 0 0 0 0 0 0 0 127 0" result="hardAlpha"/>
<feOffset/>
<feGaussianBlur stdDeviation="2.5"/>
<feColorMatrix type="matrix" values="0 0 0 0 0 0 0 0 0 0 0 0 0 0 0 0 0 0 0.23 0"/>
<feBlend mode="normal" in2="BackgroundImageFix" result="effect1_dropShadow_24455_95590"/>
<feBlend mode="normal" in="SourceGraphic" in2="effect1_dropShadow_24455_95590" result="shape"/>
</filter>
</defs>
</svg>
