<svg width="24" height="24" viewBox="0 0 24 24" fill="none" xmlns="http://www.w3.org/2000/svg">
<g clip-path="url(#clip0_21642_16411)">
<path d="M23.7411 9.51308C25.1145 15.9964 20.9722 22.3662 14.4889 23.7396C13.6705 23.9131 12.8366 24.0003 11.9999 24.0003C10.4764 24.0003 8.58595 23.5142 7.43001 23.0979C7.06204 22.9742 6.86376 22.5753 6.98751 22.2073C7.11126 21.8393 7.51017 21.641 7.87814 21.7648C7.88751 21.7681 7.89689 21.7714 7.90626 21.7751C9.03876 22.1829 10.7436 22.594 11.9999 22.594C16.9588 22.594 21.2024 19.2256 22.3203 14.4021C22.6691 12.8909 22.685 11.3215 22.3672 9.80323C22.1249 8.65245 21.6908 7.55042 21.0833 6.54308C20.8831 6.21026 20.99 5.77808 21.3228 5.57792C21.6556 5.37776 22.0878 5.48464 22.288 5.81745C22.9756 6.95933 23.4669 8.20855 23.7411 9.51308Z" fill="white"/>
<path d="M20.535 3.56489C20.8078 3.84098 20.8055 4.2863 20.5289 4.55911C20.2528 4.83239 19.8075 4.82958 19.5347 4.55348C17.5496 2.53223 14.8332 1.39786 12 1.4063C6.15846 1.4063 1.40628 6.15848 1.40628 12C1.39878 14.8018 2.50878 17.491 4.49018 19.4719C4.7644 19.7466 4.7644 20.1919 4.48971 20.4661C4.35753 20.5983 4.17846 20.6719 3.9919 20.6719C3.80487 20.6724 3.62534 20.5979 3.49362 20.4647C-1.17325 15.759 -1.14138 8.16098 3.5644 3.49411C8.27018 -1.17277 15.8682 -1.14089 20.535 3.56489Z" fill="white"/>
<path d="M11.9998 3.00684C16.9587 3.00684 20.9932 7.04137 20.9932 12.0003C20.9932 16.9592 16.9587 20.9937 11.9998 20.9937C10.0685 20.9961 8.18791 20.375 6.63869 19.2218C4.354 17.5245 3.00729 14.8465 3.00635 12.0003C3.00635 7.04137 7.04088 3.00684 11.9998 3.00684ZM19.587 12.0003C19.587 7.81668 16.1834 4.41309 11.9998 4.41309C7.81619 4.41309 4.4126 7.81668 4.4126 12.0003C4.40885 16.1871 7.79979 19.5837 11.9867 19.5875H11.9998C16.1834 19.5875 19.587 16.1839 19.587 12.0003Z" fill="white"/>
<path d="M12.7031 16.3784V17.1561C12.7031 17.5442 12.3881 17.8592 12 17.8592C11.6119 17.8592 11.2969 17.5442 11.2969 17.1561V16.3869C11.5205 16.4501 11.7563 16.4839 12 16.4844C12.2437 16.4811 12.4795 16.444 12.7031 16.3784Z" fill="white"/>
<path d="M12.7031 15.7812V16.3784C12.4795 16.4441 12.2437 16.4811 12 16.4844C11.7563 16.4839 11.5205 16.4502 11.2969 16.3869V15.7812C11.2969 15.3931 11.6119 15.0781 12 15.0781C12.3881 15.0781 12.7031 15.3931 12.7031 15.7812Z" fill="white"/>
<path d="M12.7031 7.6117V8.21873C12.7031 8.60686 12.3881 8.92186 12 8.92186C11.6119 8.92186 11.2969 8.60686 11.2969 8.21873V7.6117C11.52 7.54889 11.7558 7.51514 11.9991 7.51514C12.2433 7.51514 12.4795 7.54889 12.7031 7.6117Z" fill="white"/>
<path d="M12.7031 6.70312V7.61156C12.4795 7.54875 12.2433 7.515 11.9991 7.515C11.7558 7.515 11.52 7.54875 11.2969 7.61156V6.70312C11.2969 6.315 11.6119 6 12 6C12.3881 6 12.7031 6.315 12.7031 6.70312Z" fill="white"/>
<path d="M12.0375 11.2978C12.4083 11.3175 12.7031 11.6245 12.7031 12C12.7031 12.3881 12.3881 12.7031 12 12.7031C11.9995 12.7031 11.9995 12.7031 11.9991 12.7031C11.6114 12.7027 11.2969 12.3877 11.2969 12C11.2969 11.6119 11.6119 11.2969 12 11.2969C12.0127 11.2969 12.0248 11.2973 12.0375 11.2978Z" fill="white"/>
<path d="M12 8.92197C12.3881 8.92197 12.7031 8.60697 12.7031 8.21885V7.61182C13.7939 7.91838 14.5931 8.92057 14.5936 10.1088V10.1098C14.5936 10.4979 14.2786 10.8129 13.8905 10.8129C13.5023 10.8129 13.1873 10.4979 13.1873 10.1098C13.1873 9.454 12.6558 8.92244 12 8.92244V8.92197Z" fill="white"/>
<path d="M12 12.7032C12.3881 12.7032 12.7031 12.3882 12.7031 12C12.7031 11.6246 12.4083 11.3175 12.0375 11.2979C13.4522 11.3368 14.5781 12.5058 14.5589 13.9257C14.5434 15.0872 13.7658 16.0636 12.7031 16.3786V15.7814C12.7031 15.3933 12.3881 15.0783 12 15.0783V15.0779C12.6558 15.0779 13.1873 14.5463 13.1873 13.8905C13.1873 13.2347 12.6558 12.7032 12 12.7032Z" fill="white"/>
<path d="M11.9998 15.078V15.0784C11.6117 15.0784 11.2967 15.3934 11.2967 15.7816V16.3872C10.2064 16.0802 9.40719 15.0789 9.40625 13.8906C9.40625 13.5025 9.72125 13.1875 10.1094 13.1875C10.4975 13.1875 10.8125 13.5025 10.8125 13.8906C10.8125 14.5464 11.3441 15.078 11.9998 15.078Z" fill="white"/>
<path d="M11.9998 8.92197V8.92244C11.344 8.92244 10.8125 9.454 10.8125 10.1098C10.8125 10.7656 11.344 11.2971 11.9998 11.2971C11.6117 11.2971 11.2967 11.6121 11.2967 12.0003C11.2967 12.3879 11.6112 12.7029 11.9989 12.7034C10.5668 12.7034 9.40574 11.5418 9.40527 10.1098C9.4048 8.92057 10.205 7.91838 11.2967 7.61182V8.21885C11.2967 8.60697 11.6117 8.92197 11.9998 8.92197Z" fill="white"/>
</g>
<defs>
<clipPath id="clip0_21642_16411">
<rect width="24" height="24" fill="white"/>
</clipPath>
</defs>
</svg>
