<svg width="34" height="34" viewBox="0 0 34 34" fill="none" xmlns="http://www.w3.org/2000/svg">
<g filter="url(#filter0_d_1_5)">
<path fill-rule="evenodd" clip-rule="evenodd" d="M5 17C5 10.3726 10.3726 5 17 5V5C23.6274 5 29 10.3726 29 17V17C29 23.6274 23.6274 29 17 29V29C10.3726 29 5 23.6274 5 17V17Z" fill="white"/>
</g>
<path d="M22 16.688L17.745 21.1469C17.2237 21.6931 16.5167 22 15.7796 22C15.0424 22 14.3354 21.6931 13.8141 21.1469C13.2928 20.6006 13 19.8598 13 19.0873C13 18.3147 13.2928 17.5739 13.8141 17.0276L18.0691 12.5687C18.4166 12.2046 18.8879 12 19.3794 12C19.8709 12 20.3422 12.2046 20.6897 12.5687C21.0372 12.9329 21.2324 13.4268 21.2324 13.9418C21.2324 14.4568 21.0372 14.9508 20.6897 15.3149L16.4301 19.7738C16.2563 19.9559 16.0207 20.0582 15.7749 20.0582C15.5292 20.0582 15.2935 19.9559 15.1198 19.7738C14.946 19.5917 14.8484 19.3448 14.8484 19.0873C14.8484 18.8297 14.946 18.5828 15.1198 18.4007L19.0507 14.2863" stroke="#2C6DF9" stroke-linecap="round" stroke-linejoin="round"/>
<defs>
<filter id="filter0_d_1_5" x="0" y="0" width="34" height="34" filterUnits="userSpaceOnUse" color-interpolation-filters="sRGB">
<feFlood flood-opacity="0" result="BackgroundImageFix"/>
<feColorMatrix in="SourceAlpha" type="matrix" values="0 0 0 0 0 0 0 0 0 0 0 0 0 0 0 0 0 0 127 0" result="hardAlpha"/>
<feOffset/>
<feGaussianBlur stdDeviation="2.5"/>
<feColorMatrix type="matrix" values="0 0 0 0 0 0 0 0 0 0 0 0 0 0 0 0 0 0 0.23 0"/>
<feBlend mode="normal" in2="BackgroundImageFix" result="effect1_dropShadow_1_5"/>
<feBlend mode="normal" in="SourceGraphic" in2="effect1_dropShadow_1_5" result="shape"/>
</filter>
</defs>
</svg>
