<svg width="12" height="12" viewBox="0 0 12 12" fill="none" xmlns="http://www.w3.org/2000/svg">
<path d="M11.25 0.757943C10.925 0.432943 10.4 0.432943 10.075 0.757943L5.99998 4.82461L1.92498 0.749609C1.59998 0.424609 1.07498 0.424609 0.749976 0.749609C0.424976 1.07461 0.424976 1.59961 0.749976 1.92461L4.82498 5.99961L0.749976 10.0746C0.424976 10.3996 0.424976 10.9246 0.749976 11.2496C1.07498 11.5746 1.59998 11.5746 1.92498 11.2496L5.99998 7.17461L10.075 11.2496C10.4 11.5746 10.925 11.5746 11.25 11.2496C11.575 10.9246 11.575 10.3996 11.25 10.0746L7.17497 5.99961L11.25 1.92461C11.5666 1.60794 11.5666 1.07461 11.25 0.757943Z" fill="white"/>
</svg>
