<svg width="56" height="56" viewBox="0 0 56 56" fill="none" xmlns="http://www.w3.org/2000/svg">
<g clip-path="url(#clip0_21468_44931)">
<path opacity="0.3" d="M28 56C43.464 56 56 43.464 56 28C56 12.536 43.464 0 28 0C12.536 0 0 12.536 0 28C0 43.464 12.536 56 28 56Z" fill="#E4EDFF"/>
<path d="M27.9997 46.6654C38.309 46.6654 46.6663 38.308 46.6663 27.9987C46.6663 17.6894 38.309 9.33203 27.9997 9.33203C17.6904 9.33203 9.33301 17.6894 9.33301 27.9987C9.33301 38.308 17.6904 46.6654 27.9997 46.6654Z" fill="#E4EDFF"/>
<path fill-rule="evenodd" clip-rule="evenodd" d="M22 18C19.7909 18 18 19.7909 18 22V34C18 36.2091 19.7909 38 22 38H34C36.2091 38 38 36.2091 38 34V22C38 19.7909 36.2091 18 34 18H22ZM30.5 24.25C30.0858 24.25 29.75 24.5858 29.75 25C29.75 25.4142 30.0858 25.75 30.5 25.75H31.4393L29.1372 29.2617C29.0364 29.4155 28.8095 29.4114 28.7143 29.2541L26.8061 26.1017C26.1065 24.946 24.4169 24.9851 23.7716 26.1719L21.3411 30.6417C21.1433 31.0056 21.2779 31.461 21.6417 31.6589C22.0056 31.8568 22.461 31.7222 22.6589 31.3583L25.0894 26.8885C25.1816 26.7189 25.4229 26.7133 25.5229 26.8784L27.431 30.0308C28.0978 31.1323 29.6857 31.1609 30.3917 30.084L32.8378 26.3527L33.3292 27.3354C33.5144 27.7059 33.9649 27.8561 34.3354 27.6708C34.7059 27.4856 34.8561 27.0351 34.6708 26.6646L33.9472 25.2174C33.6508 24.6245 33.0448 24.25 32.382 24.25H30.5Z" fill="#2C6DF9"/>
</g>
<defs>
<clipPath id="clip0_21468_44931">
<rect width="56" height="56" fill="white"/>
</clipPath>
</defs>
</svg>
