<svg width="14" height="14" viewBox="0 0 14 14" fill="none" xmlns="http://www.w3.org/2000/svg">
<path d="M13.3974 1.07326C13.3967 1.06548 13.3952 1.05794 13.3941 1.05028C13.3928 1.04099 13.3917 1.03168 13.3899 1.02244C13.3881 1.01362 13.3857 1.00508 13.3835 0.99643C13.3815 0.988473 13.3798 0.980467 13.3774 0.972585C13.3748 0.964086 13.3716 0.955883 13.3686 0.947582C13.3658 0.939724 13.3632 0.931792 13.36 0.924032C13.3568 0.916273 13.353 0.908858 13.3495 0.901296C13.3457 0.893314 13.3421 0.885259 13.338 0.877426C13.3341 0.870183 13.3297 0.863286 13.3254 0.856241C13.3209 0.84858 13.3165 0.84082 13.3115 0.833332C13.3063 0.825548 13.3005 0.818231 13.2949 0.810743C13.2902 0.804511 13.2859 0.798106 13.2809 0.792021C13.27 0.778744 13.2585 0.765959 13.2464 0.753815C13.2463 0.753716 13.2462 0.753618 13.2461 0.753519C13.246 0.753421 13.2459 0.753372 13.2458 0.753273C13.2337 0.741129 13.2209 0.729625 13.2076 0.718712C13.2015 0.713712 13.1951 0.709376 13.1889 0.704696C13.1814 0.699104 13.1741 0.693315 13.1663 0.688117C13.1588 0.683117 13.1511 0.678781 13.1434 0.6742C13.1363 0.669987 13.1295 0.665578 13.1222 0.661686C13.1144 0.657498 13.1063 0.653951 13.0983 0.650182C13.0908 0.64661 13.0833 0.642841 13.0756 0.639614C13.0678 0.636412 13.0599 0.633801 13.052 0.630992C13.0437 0.628012 13.0356 0.624834 13.0271 0.622272C13.0192 0.619883 13.0112 0.618134 13.0032 0.616138C12.9946 0.613946 12.986 0.611532 12.9772 0.609783C12.968 0.60796 12.9587 0.606852 12.9494 0.605521C12.9417 0.604438 12.9342 0.60296 12.9264 0.602196C12.9091 0.600521 12.8918 0.599609 12.8745 0.599609H9.19591C8.90568 0.599609 8.6704 0.834884 8.6704 1.12512C8.6704 1.41535 8.90568 1.65062 9.19591 1.65062H11.6058L7.7733 5.48315C7.56808 5.68837 7.56808 6.02112 7.7733 6.22634C7.97852 6.43156 8.31127 6.43156 8.51649 6.22634L12.349 2.39384V4.80373C12.349 5.09396 12.5843 5.32924 12.8745 5.32924C13.1647 5.32924 13.4 5.09396 13.4 4.80373V1.12516C13.4 1.10782 13.3991 1.09051 13.3974 1.07326Z" fill="white"/>
<path d="M5.48361 7.77308L1.65113 11.6056V9.1957C1.65113 8.90546 1.41586 8.67019 1.12563 8.67019C0.835371 8.67019 0.600098 8.90546 0.600098 9.1957V12.8743C0.600098 12.8916 0.601009 12.9089 0.602709 12.9262C0.603472 12.9339 0.604926 12.9415 0.606034 12.9491C0.607364 12.9584 0.608448 12.9678 0.610296 12.977C0.612045 12.9858 0.614459 12.9943 0.616651 13.003C0.618647 13.0109 0.620396 13.0189 0.622785 13.0268C0.625347 13.0353 0.628525 13.0435 0.631505 13.0518C0.634338 13.0597 0.636925 13.0676 0.640127 13.0754C0.643329 13.0831 0.647123 13.0905 0.650695 13.0981C0.654463 13.1061 0.658011 13.1141 0.662198 13.122C0.66609 13.1292 0.6705 13.1361 0.674712 13.1431C0.679294 13.1508 0.683629 13.1586 0.68863 13.1661C0.693828 13.1738 0.699616 13.1811 0.705208 13.1886C0.709889 13.1949 0.714224 13.2013 0.719225 13.2074C0.730137 13.2207 0.741641 13.2335 0.753785 13.2456C0.753884 13.2457 0.753933 13.2458 0.754032 13.2459C0.75413 13.246 0.754229 13.246 0.754327 13.2461C0.766471 13.2583 0.779256 13.2698 0.792534 13.2807C0.798618 13.2857 0.805023 13.29 0.811255 13.2947C0.818743 13.3003 0.82606 13.3061 0.833844 13.3113C0.841308 13.3163 0.849067 13.3206 0.856753 13.3252C0.863798 13.3294 0.870671 13.3338 0.877937 13.3377C0.885771 13.3419 0.893826 13.3454 0.901807 13.3492C0.90937 13.3528 0.916809 13.3566 0.924544 13.3598C0.932303 13.363 0.940211 13.3655 0.948093 13.3684C0.956395 13.3714 0.964598 13.3745 0.973096 13.3771C0.980979 13.3795 0.988985 13.3813 0.996941 13.3833C1.00559 13.3854 1.01414 13.3879 1.02295 13.3896C1.03219 13.3914 1.0415 13.3925 1.05079 13.3938C1.05845 13.3949 1.06601 13.3964 1.07377 13.3972C1.09102 13.3989 1.10831 13.3998 1.1256 13.3998H1.12563H4.8042C5.09443 13.3998 5.3297 13.1645 5.3297 12.8743C5.3297 12.584 5.09443 12.3488 4.8042 12.3488H2.39432L6.22683 8.51623C6.43205 8.31101 6.43205 7.97825 6.22683 7.77303C6.02161 7.56781 5.68886 7.56786 5.48361 7.77308Z" fill="white"/>
</svg>
