<svg width="20" height="20" viewBox="0 0 20 20" fill="none" xmlns="http://www.w3.org/2000/svg">
<path d="M10 1.25C5.16797 1.25 1.25 5.16797 1.25 10C1.25 14.832 5.16797 18.75 10 18.75C14.832 18.75 18.75 14.832 18.75 10C18.75 5.16797 14.832 1.25 10 1.25ZM10 17.2656C5.98828 17.2656 2.73438 14.0117 2.73438 10C2.73438 5.98828 5.98828 2.73438 10 2.73438C14.0117 2.73438 17.2656 5.98828 17.2656 10C17.2656 14.0117 14.0117 17.2656 10 17.2656Z" fill="#EB5146"/>
<path d="M9.0622 13.4375C9.0622 13.6861 9.16097 13.9246 9.33678 14.1004C9.5126 14.2762 9.75105 14.375 9.99969 14.375C10.2483 14.375 10.4868 14.2762 10.6626 14.1004C10.8384 13.9246 10.9372 13.6861 10.9372 13.4375C10.9372 13.1889 10.8384 12.9504 10.6626 12.7746C10.4868 12.5988 10.2483 12.5 9.99969 12.5C9.75105 12.5 9.5126 12.5988 9.33678 12.7746C9.16097 12.9504 9.0622 13.1889 9.0622 13.4375ZM9.53094 11.25H10.4684C10.5544 11.25 10.6247 11.1797 10.6247 11.0938V5.78125C10.6247 5.69531 10.5544 5.625 10.4684 5.625H9.53094C9.44501 5.625 9.37469 5.69531 9.37469 5.78125V11.0938C9.37469 11.1797 9.44501 11.25 9.53094 11.25Z" fill="#EB5146"/>
</svg>
