<svg width="24" height="24" viewBox="0 0 24 24" fill="none" xmlns="http://www.w3.org/2000/svg">
<rect width="24" height="24" rx="12" fill="#2C6DF9"/>
<path d="M17.3334 11.5723C17.3334 12.0001 17.2206 12.3502 17.0138 12.6185C17.1283 13.0838 17.0727 13.6576 16.8132 14.0644C16.903 14.5596 16.7486 15.0931 16.4335 15.4624C16.4735 16.5854 15.7865 17.3334 14.5515 17.3331C14.4911 17.3337 13.9847 17.3333 13.7729 17.3331H13.6971C12.728 17.3334 11.8245 17.0218 11.1123 16.7762L11.1095 16.7754C10.9325 16.7143 10.7672 16.6572 10.6158 16.6102C10.4467 16.5577 10.3245 16.4041 10.3245 16.227V10.8488C10.3245 10.7768 10.3452 10.7071 10.3817 10.646C10.3968 10.6208 10.4146 10.597 10.4347 10.5751C10.5699 10.4283 10.7141 10.2506 10.86 10.0648C10.9002 10.0136 10.9406 9.96166 10.9809 9.90958L11.0718 9.79221L11.0732 9.79026L11.0742 9.78914C11.3138 9.47887 11.5474 9.17642 11.7408 8.98296C11.9471 8.77677 12.0141 8.43218 12.0851 8.06732C12.2039 7.45674 12.4358 6.66675 13.0607 6.66675C14.3025 6.66675 14.788 7.38912 14.788 8.60592C14.788 9.2086 14.5693 9.64042 14.3924 9.98994L14.3568 10.0604H15.8183C16.6652 10.0604 17.3334 10.7875 17.3334 11.5723Z" fill="white"/>
<path fill-rule="evenodd" clip-rule="evenodd" d="M9.33341 17.019C9.41393 17.019 9.54175 16.9655 9.56258 16.843V10.7917C9.52984 10.6897 9.41393 10.6667 9.33341 10.6667H7.33341C6.96523 10.6667 6.66675 10.9652 6.66675 11.3334V16.3524C6.66675 16.7206 6.96523 17.019 7.33341 17.019H9.33341ZM8.1345 16.2902C8.41914 16.2902 8.64989 16.0594 8.64989 15.7747C8.64989 15.4901 8.41914 15.2594 8.1345 15.2594C7.84988 15.2594 7.61913 15.4901 7.61913 15.7747C7.61913 16.0594 7.84988 16.2902 8.1345 16.2902Z" fill="white"/>
</svg>
