<svg width="20" height="20" viewBox="0 0 20 20" fill="none" xmlns="http://www.w3.org/2000/svg">
<path d="M8.33317 4.25C7.91896 4.25 7.58317 4.58579 7.58317 5C7.58317 5.41421 7.91896 5.75 8.33317 5.75V4.25ZM13.3332 5.75C13.7474 5.75 14.0832 5.41421 14.0832 5C14.0832 4.58579 13.7474 4.25 13.3332 4.25V5.75ZM8.33317 10.9167C7.91896 10.9167 7.58317 11.2525 7.58317 11.6667C7.58317 12.0809 7.91896 12.4167 8.33317 12.4167V10.9167ZM13.3332 12.4167C13.7474 12.4167 14.0832 12.0809 14.0832 11.6667C14.0832 11.2525 13.7474 10.9167 13.3332 10.9167V12.4167ZM8.33317 7.58333C7.91896 7.58333 7.58317 7.91912 7.58317 8.33333C7.58317 8.74755 7.91896 9.08333 8.33317 9.08333V7.58333ZM18.3332 9.08333C18.7474 9.08333 19.0832 8.74755 19.0832 8.33333C19.0832 7.91912 18.7474 7.58333 18.3332 7.58333V9.08333ZM8.33317 14.25C7.91896 14.25 7.58317 14.5858 7.58317 15C7.58317 15.4142 7.91896 15.75 8.33317 15.75V14.25ZM18.3332 15.75C18.7474 15.75 19.0832 15.4142 19.0832 15C19.0832 14.5858 18.7474 14.25 18.3332 14.25V15.75ZM3.33317 7.58333C2.82691 7.58333 2.4165 7.17293 2.4165 6.66667L0.916504 6.66667C0.916504 8.00135 1.99848 9.08333 3.33317 9.08333L3.33317 7.58333ZM2.4165 6.66667C2.4165 6.16041 2.82691 5.75 3.33317 5.75V4.25C1.99848 4.25 0.916504 5.33198 0.916504 6.66667L2.4165 6.66667ZM3.33317 5.75C3.83943 5.75 4.24984 6.16041 4.24984 6.66667H5.74984C5.74984 5.33198 4.66786 4.25 3.33317 4.25V5.75ZM4.24984 6.66667C4.24984 7.17293 3.83943 7.58333 3.33317 7.58333L3.33317 9.08333C4.66786 9.08333 5.74984 8.00135 5.74984 6.66667H4.24984ZM3.33317 14.25C2.82691 14.25 2.4165 13.8396 2.4165 13.3333H0.916504C0.916504 14.668 1.99848 15.75 3.33317 15.75L3.33317 14.25ZM2.4165 13.3333C2.4165 12.8271 2.82691 12.4167 3.33317 12.4167V10.9167C1.99848 10.9167 0.916504 11.9986 0.916504 13.3333H2.4165ZM3.33317 12.4167C3.83943 12.4167 4.24984 12.8271 4.24984 13.3333H5.74984C5.74984 11.9986 4.66786 10.9167 3.33317 10.9167V12.4167ZM4.24984 13.3333C4.24984 13.8396 3.83943 14.25 3.33317 14.25L3.33317 15.75C4.66786 15.75 5.74984 14.668 5.74984 13.3333H4.24984ZM8.33317 5.75H13.3332V4.25H8.33317V5.75ZM8.33317 12.4167H13.3332V10.9167H8.33317V12.4167ZM8.33317 9.08333H18.3332V7.58333H8.33317V9.08333ZM8.33317 15.75H18.3332V14.25H8.33317V15.75Z" fill="#2C6DF9"/>
</svg>
