<svg width="20" height="20" viewBox="0 0 20 20" fill="none" xmlns="http://www.w3.org/2000/svg">
<path d="M8.33366 4.25C7.91945 4.25 7.58366 4.58579 7.58366 5C7.58366 5.41421 7.91945 5.75 8.33366 5.75V4.25ZM13.3337 5.75C13.7479 5.75 14.0837 5.41421 14.0837 5C14.0837 4.58579 13.7479 4.25 13.3337 4.25V5.75ZM8.33366 10.9167C7.91945 10.9167 7.58366 11.2525 7.58366 11.6667C7.58366 12.0809 7.91945 12.4167 8.33366 12.4167V10.9167ZM13.3337 12.4167C13.7479 12.4167 14.0837 12.0809 14.0837 11.6667C14.0837 11.2525 13.7479 10.9167 13.3337 10.9167V12.4167ZM8.33366 7.58333C7.91945 7.58333 7.58366 7.91912 7.58366 8.33333C7.58366 8.74755 7.91945 9.08333 8.33366 9.08333V7.58333ZM18.3337 9.08333C18.7479 9.08333 19.0837 8.74755 19.0837 8.33333C19.0837 7.91912 18.7479 7.58333 18.3337 7.58333V9.08333ZM8.33366 14.25C7.91945 14.25 7.58366 14.5858 7.58366 15C7.58366 15.4142 7.91945 15.75 8.33366 15.75V14.25ZM18.3337 15.75C18.7479 15.75 19.0837 15.4142 19.0837 15C19.0837 14.5858 18.7479 14.25 18.3337 14.25V15.75ZM3.33366 7.58333C2.8274 7.58333 2.41699 7.17293 2.41699 6.66667L0.916992 6.66667C0.916992 8.00135 1.99897 9.08333 3.33366 9.08333L3.33366 7.58333ZM2.41699 6.66667C2.41699 6.16041 2.8274 5.75 3.33366 5.75V4.25C1.99897 4.25 0.916992 5.33198 0.916992 6.66667L2.41699 6.66667ZM3.33366 5.75C3.83992 5.75 4.25033 6.16041 4.25033 6.66667H5.75033C5.75033 5.33198 4.66835 4.25 3.33366 4.25V5.75ZM4.25033 6.66667C4.25033 7.17293 3.83992 7.58333 3.33366 7.58333L3.33366 9.08333C4.66835 9.08333 5.75033 8.00135 5.75033 6.66667H4.25033ZM3.33366 14.25C2.8274 14.25 2.41699 13.8396 2.41699 13.3333H0.916992C0.916992 14.668 1.99897 15.75 3.33366 15.75L3.33366 14.25ZM2.41699 13.3333C2.41699 12.8271 2.8274 12.4167 3.33366 12.4167V10.9167C1.99897 10.9167 0.916992 11.9986 0.916992 13.3333H2.41699ZM3.33366 12.4167C3.83992 12.4167 4.25033 12.8271 4.25033 13.3333H5.75033C5.75033 11.9986 4.66835 10.9167 3.33366 10.9167V12.4167ZM4.25033 13.3333C4.25033 13.8396 3.83992 14.25 3.33366 14.25L3.33366 15.75C4.66835 15.75 5.75033 14.668 5.75033 13.3333H4.25033ZM8.33366 5.75H13.3337V4.25H8.33366V5.75ZM8.33366 12.4167H13.3337V10.9167H8.33366V12.4167ZM8.33366 9.08333H18.3337V7.58333H8.33366V9.08333ZM8.33366 15.75H18.3337V14.25H8.33366V15.75Z" fill="#667085"/>
</svg>
