<svg width="35" height="35" viewBox="0 0 35 35" fill="none" xmlns="http://www.w3.org/2000/svg">
<g filter="url(#filter0_d_23595_70583)">
<rect x="5.57031" y="5.97656" width="24" height="24" rx="12" fill="white"/>
<g clip-path="url(#clip0_23595_70583)">
<path d="M15.097 17.9506C15.0809 17.7953 15.072 17.6381 15.072 17.4792C15.072 17.1953 15.0988 16.9185 15.1488 16.6489C15.1613 16.5846 15.1274 16.5185 15.0684 16.4917C14.8256 16.3828 14.6024 16.2328 14.4095 16.0435C14.1823 15.8232 14.0034 15.5579 13.8844 15.2645C13.7655 14.9712 13.7089 14.6563 13.7184 14.3399C13.7345 13.7667 13.9649 13.2221 14.3666 12.8114C14.8077 12.3596 15.4006 12.1131 16.0309 12.1203C16.6006 12.1256 17.1506 12.3453 17.5666 12.7346C17.7077 12.8667 17.8291 13.0131 17.9309 13.1703C17.9666 13.2256 18.0363 13.2489 18.097 13.2274C18.4113 13.1185 18.7434 13.0417 19.0845 13.006C19.1845 12.9953 19.2416 12.8881 19.197 12.7989C18.6166 11.6506 17.4309 10.8578 16.0595 10.8364C14.0791 10.806 12.4291 12.4292 12.4291 14.406C12.4291 15.5274 12.9452 16.5274 13.7541 17.1828C13.1863 17.4453 12.6631 17.8078 12.2095 18.2614C11.2309 19.2381 10.6774 20.5274 10.6416 21.9042C10.6412 21.9233 10.6445 21.9422 10.6515 21.96C10.6584 21.9777 10.6689 21.9939 10.6822 22.0075C10.6955 22.0212 10.7114 22.032 10.729 22.0394C10.7466 22.0468 10.7654 22.0506 10.7845 22.0506H11.7863C11.8631 22.0506 11.9274 21.9899 11.9291 21.9131C11.9631 20.8774 12.3827 19.9078 13.1202 19.1721C13.6452 18.6471 14.2881 18.2828 14.9899 18.106C15.0595 18.0881 15.1059 18.0221 15.097 17.9506ZM23.1416 17.4792C23.1416 15.5256 21.572 13.9381 19.6256 13.9078C17.647 13.8774 15.9988 15.5006 15.9988 17.4792C15.9988 18.6006 16.5166 19.6006 17.3238 20.256C16.7501 20.5219 16.2278 20.8871 15.7809 21.3346C14.8024 22.3114 14.2488 23.6006 14.2131 24.9756C14.2126 24.9947 14.2159 25.0137 14.2229 25.0314C14.2299 25.0492 14.2403 25.0653 14.2536 25.079C14.2669 25.0926 14.2829 25.1035 14.3004 25.1109C14.318 25.1183 14.3369 25.1221 14.3559 25.1221H15.3559C15.4327 25.1221 15.497 25.0614 15.4988 24.9846C15.5327 23.9489 15.9524 22.9792 16.6899 22.2435C17.4595 21.4739 18.4809 21.0506 19.5702 21.0506C21.5416 21.0506 23.1416 19.4524 23.1416 17.4792ZM21.1863 19.0953C20.7541 19.5274 20.1809 19.7649 19.5702 19.7649C18.9595 19.7649 18.3863 19.5274 17.9541 19.0953C17.7385 18.8808 17.5681 18.6251 17.4531 18.3436C17.3381 18.062 17.2807 17.7602 17.2845 17.456C17.2899 16.8703 17.5238 16.3042 17.9327 15.8846C18.3613 15.4453 18.9345 15.2006 19.547 15.1935C20.1524 15.1881 20.7399 15.4239 21.172 15.8471C21.6149 16.281 21.8577 16.8614 21.8577 17.4792C21.8559 18.0899 21.6184 18.6631 21.1863 19.0953Z" fill="#2C6DF9"/>
<path d="M23.2631 21.3586L20.9031 23.7186C20.8097 23.8119 20.7231 23.9853 20.7031 24.1119L20.5764 25.0119C20.5297 25.3386 20.7564 25.5652 21.0831 25.5186L21.9831 25.3919C22.1097 25.3719 22.2897 25.2852 22.3764 25.1919L24.7364 22.8319C25.1431 22.4253 25.3364 21.9519 24.7364 21.3519C24.1431 20.7586 23.6698 20.9519 23.2631 21.3586Z" stroke="#2C6DF9" stroke-miterlimit="10" stroke-linecap="round" stroke-linejoin="round"/>
<path d="M22.9231 21.6992C23.1231 22.4192 23.6831 22.9792 24.4031 23.1792" stroke="#2C6DF9" stroke-miterlimit="10" stroke-linecap="round" stroke-linejoin="round"/>
</g>
</g>
<defs>
<filter id="filter0_d_23595_70583" x="0.570312" y="0.976562" width="34" height="34" filterUnits="userSpaceOnUse" color-interpolation-filters="sRGB">
<feFlood flood-opacity="0" result="BackgroundImageFix"/>
<feColorMatrix in="SourceAlpha" type="matrix" values="0 0 0 0 0 0 0 0 0 0 0 0 0 0 0 0 0 0 127 0" result="hardAlpha"/>
<feOffset/>
<feGaussianBlur stdDeviation="2.5"/>
<feColorMatrix type="matrix" values="0 0 0 0 0 0 0 0 0 0 0 0 0 0 0 0 0 0 0.23 0"/>
<feBlend mode="normal" in2="BackgroundImageFix" result="effect1_dropShadow_23595_70583"/>
<feBlend mode="normal" in="SourceGraphic" in2="effect1_dropShadow_23595_70583" result="shape"/>
</filter>
<clipPath id="clip0_23595_70583">
<rect width="16" height="16" fill="white" transform="translate(9.57031 9.97656)"/>
</clipPath>
</defs>
</svg>
