<svg width="35" height="35" viewBox="0 0 35 35" fill="none" xmlns="http://www.w3.org/2000/svg">
<g filter="url(#filter0_d_23595_70575)">
<rect x="5.57031" y="5.97656" width="24" height="24" rx="12" fill="white"/>
<path d="M17.5703 17.9753C19.4112 17.9753 20.9036 16.4829 20.9036 14.6419C20.9036 12.801 19.4112 11.3086 17.5703 11.3086C15.7293 11.3086 14.2369 12.801 14.2369 14.6419C14.2369 16.4829 15.7293 17.9753 17.5703 17.9753Z" stroke="#2C6DF9" stroke-linecap="round" stroke-linejoin="round"/>
<path d="M22.377 20.468L20.017 22.828C19.9236 22.9213 19.837 23.0946 19.817 23.2213L19.6903 24.1213C19.6436 24.4479 19.8703 24.6746 20.197 24.6279L21.0969 24.5013C21.2236 24.4813 21.4036 24.3946 21.4903 24.3013L23.8503 21.9413C24.257 21.5346 24.4503 21.0613 23.8503 20.4613C23.257 19.8679 22.7836 20.0613 22.377 20.468Z" stroke="#2C6DF9" stroke-miterlimit="10" stroke-linecap="round" stroke-linejoin="round"/>
<path d="M22.037 20.8086C22.237 21.5286 22.797 22.0886 23.517 22.2886" stroke="#2C6DF9" stroke-miterlimit="10" stroke-linecap="round" stroke-linejoin="round"/>
<path d="M11.8436 24.6432C11.8436 22.0632 14.4103 19.9766 17.5703 19.9766C18.2636 19.9766 18.9303 20.0766 19.5503 20.2632" stroke="#2C6DF9" stroke-linecap="round" stroke-linejoin="round"/>
</g>
<defs>
<filter id="filter0_d_23595_70575" x="0.570312" y="0.976562" width="34" height="34" filterUnits="userSpaceOnUse" color-interpolation-filters="sRGB">
<feFlood flood-opacity="0" result="BackgroundImageFix"/>
<feColorMatrix in="SourceAlpha" type="matrix" values="0 0 0 0 0 0 0 0 0 0 0 0 0 0 0 0 0 0 127 0" result="hardAlpha"/>
<feOffset/>
<feGaussianBlur stdDeviation="2.5"/>
<feColorMatrix type="matrix" values="0 0 0 0 0 0 0 0 0 0 0 0 0 0 0 0 0 0 0.23 0"/>
<feBlend mode="normal" in2="BackgroundImageFix" result="effect1_dropShadow_23595_70575"/>
<feBlend mode="normal" in="SourceGraphic" in2="effect1_dropShadow_23595_70575" result="shape"/>
</filter>
</defs>
</svg>
