<svg width="48" height="48" viewBox="0 0 48 48" fill="none" xmlns="http://www.w3.org/2000/svg">
<path d="M32 24.8182C32 24.5795 31.925 24.3835 31.775 24.2301L22.975 15.2301C22.825 15.0767 22.6333 15 22.4 15C22.1667 15 21.975 15.0767 21.825 15.2301L13.05 24.2045C12.8833 24.4091 12.8 24.6136 12.8 24.8182C12.8 25.0568 12.875 25.2528 13.025 25.4062C13.175 25.5597 13.3667 25.6364 13.6 25.6364H19.2V34.6364C19.2 34.858 19.2792 35.0497 19.4375 35.2116C19.5958 35.3736 19.7833 35.4545 20 35.4545H24.8C25.0167 35.4545 25.2042 35.3736 25.3625 35.2116C25.5208 35.0497 25.6 34.858 25.6 34.6364V25.6364H31.2C31.4167 25.6364 31.6042 25.5554 31.7625 25.3935C31.9208 25.2315 32 25.0398 32 24.8182ZM48 32.1818C48 34.892 47.0625 37.206 45.1875 39.1236C43.3125 41.0412 41.05 42 38.4 42H11.2C8.11667 42 5.47917 40.8793 3.2875 38.6378C1.09583 36.3963 0 33.6989 0 30.5455C0 28.3295 0.583333 26.2841 1.75 24.4091C2.91667 22.5341 4.48333 21.1278 6.45 20.1903C6.41667 19.679 6.4 19.3125 6.4 19.0909C6.4 15.4773 7.65 12.392 10.15 9.83523C12.65 7.27841 15.6667 6 19.2 6C21.8 6 24.1792 6.74148 26.3375 8.22443C28.4958 9.70739 30.0667 11.6761 31.05 14.1307C32.2333 13.0739 33.6167 12.5455 35.2 12.5455C36.9667 12.5455 38.475 13.1847 39.725 14.4631C40.975 15.7415 41.6 17.2841 41.6 19.0909C41.6 20.3864 41.2583 21.5625 40.575 22.6193C42.7417 23.1477 44.5208 24.3026 45.9125 26.0838C47.3042 27.8651 48 29.8977 48 32.1818Z" fill="#2C6DF9"/>
</svg>
