<svg width="44" height="44" viewBox="0 0 44 44" fill="none" xmlns="http://www.w3.org/2000/svg">
<rect width="44" height="44" rx="22" fill="#F3F6FC"/>
<path d="M19.8054 23.2172C19.4835 22.9565 19.0113 23.0061 18.7505 23.3279C18.4898 23.6498 18.5394 24.1221 18.8613 24.3828L19.8054 23.2172ZM20.8914 25.062L21.3635 24.4792H21.3635L20.8914 25.062ZM22.1156 24.9519L21.5482 24.4615L22.1156 24.9519ZM25.2341 22.4904C25.505 22.177 25.4705 21.7034 25.1571 21.4325C24.8437 21.1617 24.37 21.1962 24.0992 21.5096L25.2341 22.4904ZM18.8613 24.3828L20.4193 25.6448L21.3635 24.4792L19.8054 23.2172L18.8613 24.3828ZM22.6831 25.4423L25.2341 22.4904L24.0992 21.5096L21.5482 24.4615L22.6831 25.4423ZM20.4193 25.6448C21.1066 26.2015 22.1061 26.11 22.6831 25.4423L21.5482 24.4615C21.4987 24.5187 21.4191 24.5243 21.3635 24.4792L20.4193 25.6448ZM29.25 18.4V27.4H30.75V18.4H29.25ZM26.4444 30.25H17.5556V31.75H26.4444V30.25ZM14.75 27.4V18.4H13.25V27.4H14.75ZM25.5556 15.55H26.4444V14.05H25.5556V15.55ZM17.5556 15.55H18.4444V14.05H17.5556V15.55ZM17.5556 30.25C16.0148 30.25 14.75 28.9828 14.75 27.4H13.25C13.25 29.7936 15.1689 31.75 17.5556 31.75V30.25ZM29.25 27.4C29.25 28.9828 27.9852 30.25 26.4444 30.25V31.75C28.8311 31.75 30.75 29.7936 30.75 27.4H29.25ZM30.75 18.4C30.75 16.0064 28.8311 14.05 26.4444 14.05V15.55C27.9852 15.55 29.25 16.8172 29.25 18.4H30.75ZM14.75 18.4C14.75 16.8172 16.0148 15.55 17.5556 15.55V14.05C15.1689 14.05 13.25 16.0064 13.25 18.4H14.75ZM20.2222 13.75H23.7778V12.25H20.2222V13.75ZM23.7778 15.85H20.2222V17.35H23.7778V15.85ZM20.2222 15.85C19.6634 15.85 19.1944 15.3887 19.1944 14.8H17.6944C17.6944 16.1995 18.8174 17.35 20.2222 17.35V15.85ZM24.8056 14.8C24.8056 15.3887 24.3366 15.85 23.7778 15.85V17.35C25.1826 17.35 26.3056 16.1995 26.3056 14.8H24.8056ZM23.7778 13.75C24.3366 13.75 24.8056 14.2113 24.8056 14.8H26.3056C26.3056 13.4005 25.1826 12.25 23.7778 12.25V13.75ZM20.2222 12.25C18.8174 12.25 17.6944 13.4005 17.6944 14.8H19.1944C19.1944 14.2113 19.6634 13.75 20.2222 13.75V12.25Z" fill="#28303F"/>
</svg>
