<svg width="36" height="36" viewBox="0 0 36 36" fill="none" xmlns="http://www.w3.org/2000/svg">
<g filter="url(#filter0_d_21465_65732)">
<rect x="5" y="5" width="26" height="26" rx="13" fill="white"/>
<path d="M18.8067 17.9979L18.8087 17.9996L22.9103 13.1106C22.9787 13.0297 22.9212 12.9068 22.8154 12.9068H21.5685C21.4952 12.9068 21.4251 12.9395 21.3767 12.9957L18.8067 17.9979ZM18.8067 17.9979L18.8087 18.0004L22.9103 22.8894C22.9787 22.9703 22.9212 23.0932 22.8154 23.0932H21.5685C21.4937 23.0932 21.4235 23.0605 21.3767 23.0043L17.9939 18.9715L17.9935 18.9719L17.9931 18.9722L17.9911 18.9739L14.6103 23.0043C14.5619 23.0605 14.4918 23.0932 14.4185 23.0932H13.1716C13.148 23.0933 13.1248 23.0867 13.1048 23.074C13.0848 23.0613 13.0688 23.0432 13.0588 23.0217C13.0489 23.0003 13.0452 22.9764 13.0484 22.953C13.0516 22.9295 13.0614 22.9075 13.0767 22.8894L13.0767 22.8894L17.1783 18.0004L17.1803 18.0021L17.1783 17.9996L13.0767 13.1106L13.0767 13.1106C13.0083 13.0297 13.0659 12.9068 13.1716 12.9068H14.4185C14.4933 12.9068 14.5635 12.9395 14.6103 12.9957L14.6103 12.9957L17.9931 17.0285L17.9935 17.0281L17.9939 17.0278L17.996 17.0261L21.3767 12.9957L18.8067 17.9979Z" fill="#EB5146" stroke="#EB5146" stroke-width="0.00111607"/>
</g>
<defs>
<filter id="filter0_d_21465_65732" x="0" y="0" width="36" height="36" filterUnits="userSpaceOnUse" color-interpolation-filters="sRGB">
<feFlood flood-opacity="0" result="BackgroundImageFix"/>
<feColorMatrix in="SourceAlpha" type="matrix" values="0 0 0 0 0 0 0 0 0 0 0 0 0 0 0 0 0 0 127 0" result="hardAlpha"/>
<feOffset/>
<feGaussianBlur stdDeviation="2.5"/>
<feColorMatrix type="matrix" values="0 0 0 0 0 0 0 0 0 0 0 0 0 0 0 0 0 0 0.23 0"/>
<feBlend mode="normal" in2="BackgroundImageFix" result="effect1_dropShadow_21465_65732"/>
<feBlend mode="normal" in="SourceGraphic" in2="effect1_dropShadow_21465_65732" result="shape"/>
</filter>
</defs>
</svg>
