<svg width="16" height="16" viewBox="0 0 16 16" fill="none" xmlns="http://www.w3.org/2000/svg">
<path d="M13.3317 5.33398V6.08398C13.7459 6.08398 14.0817 5.7482 14.0817 5.33398H13.3317ZM2.66499 5.33398H1.91499C1.91499 5.7482 2.25078 6.08398 2.66499 6.08398V5.33398ZM7.60707 1.75638L8.06806 1.16478L8.06806 1.16478L7.60707 1.75638ZM8.23403 2.24492L7.77304 2.83652L7.77304 2.83652L8.23403 2.24492ZM14.9861 6.94669L15.7194 7.10384V7.10384L14.9861 6.94669ZM13.7834 12.5594L14.5167 12.7165H14.5167L13.7834 12.5594ZM2.2133 12.5594L2.94665 12.4022L2.2133 12.5594ZM1.01057 6.94669L0.277223 7.10384L1.01057 6.94669ZM6.46685 9.415C6.1434 9.15624 5.67143 9.20868 5.41268 9.53213C5.15392 9.85558 5.20636 10.3275 5.52981 10.5863L6.46685 9.415ZM7.16688 10.9355L7.6354 10.3498L7.16688 10.9355ZM8.08506 10.8539L7.52062 10.36L8.08506 10.8539ZM10.5628 9.1612C10.8355 8.84947 10.8039 8.37565 10.4922 8.10289C10.1805 7.83012 9.70666 7.86171 9.4339 8.17344L10.5628 9.1612ZM12.5817 4.66732V5.33398H14.0817V4.66732H12.5817ZM13.3317 4.58398H2.66499V6.08398H13.3317V4.58398ZM3.41499 5.33398V3.33398H1.91499V5.33398H3.41499ZM9.46333 3.41732H11.3317V1.91732H9.46333V3.41732ZM4.665 2.08398H6.37778V0.583984H4.665V2.08398ZM7.14609 2.34798L7.77304 2.83652L8.69501 1.65332L8.06806 1.16478L7.14609 2.34798ZM9.46333 1.91732C9.18497 1.91732 8.91458 1.82441 8.69501 1.65332L7.77304 2.83652C8.25608 3.21292 8.85095 3.41732 9.46333 3.41732V1.91732ZM14.0817 4.66732C14.0817 3.14853 12.8504 1.91732 11.3317 1.91732V3.41732C12.022 3.41732 12.5817 3.97696 12.5817 4.66732H14.0817ZM6.37778 2.08398C6.65613 2.08398 6.92652 2.17689 7.14609 2.34798L8.06806 1.16478C7.58502 0.788384 6.99016 0.583984 6.37778 0.583984V2.08398ZM3.41499 3.33398C3.41499 2.64363 3.97464 2.08398 4.665 2.08398V0.583984C3.14621 0.583984 1.91499 1.8152 1.91499 3.33398H3.41499ZM2.31431 6.08398H13.6823V4.58398H2.31431V6.08398ZM14.2527 6.78954L13.05 12.4022L14.5167 12.7165L15.7194 7.10384L14.2527 6.78954ZM11.1759 13.9173H4.82077V15.4173H11.1759V13.9173ZM2.94665 12.4022L1.74393 6.78954L0.277223 7.10384L1.47995 12.7165L2.94665 12.4022ZM4.82077 13.9173C3.91699 13.9173 3.13602 13.286 2.94665 12.4022L1.47995 12.7165C1.81751 14.2919 3.20968 15.4173 4.82077 15.4173V13.9173ZM13.05 12.4022C12.8606 13.286 12.0797 13.9173 11.1759 13.9173V15.4173C12.787 15.4173 14.1791 14.2919 14.5167 12.7165L13.05 12.4022ZM13.6823 6.08398C14.0537 6.08398 14.3305 6.42641 14.2527 6.78954L15.7194 7.10384C15.9973 5.80694 15.0087 4.58398 13.6823 4.58398V6.08398ZM2.31431 4.58398C0.987968 4.58398 -0.000684083 5.80694 0.277223 7.10384L1.74393 6.78954C1.66611 6.42641 1.94294 6.08398 2.31431 6.08398V4.58398ZM5.52981 10.5863L6.69835 11.5211L7.6354 10.3498L6.46685 9.415L5.52981 10.5863ZM8.64949 11.3478L10.5628 9.1612L9.4339 8.17344L7.52062 10.36L8.64949 11.3478ZM6.69835 11.5211C7.29035 11.9947 8.15026 11.9183 8.64949 11.3478L7.52062 10.36C7.54999 10.3265 7.60057 10.322 7.6354 10.3498L6.69835 11.5211Z" fill="#FA9E00"/>
</svg>
