<svg width="16" height="16" viewBox="0 0 16 16" fill="none" xmlns="http://www.w3.org/2000/svg">
<path d="M8 1C4.13437 1 1 4.13437 1 8C1 11.8656 4.13437 15 8 15C11.8656 15 15 11.8656 15 8C15 4.13437 11.8656 1 8 1ZM8 13.8125C4.79063 13.8125 2.1875 11.2094 2.1875 8C2.1875 4.79063 4.79063 2.1875 8 2.1875C11.2094 2.1875 13.8125 4.79063 13.8125 8C13.8125 11.2094 11.2094 13.8125 8 13.8125Z" fill="#667085"/>
<path d="M9.74351 4.94795C9.27476 4.53701 8.65601 4.31201 7.99976 4.31201C7.34351 4.31201 6.72476 4.53857 6.25601 4.94795C5.76851 5.37451 5.49976 5.94795 5.49976 6.56201V6.68076C5.49976 6.74951 5.55601 6.80576 5.62476 6.80576H6.37476C6.44351 6.80576 6.49976 6.74951 6.49976 6.68076V6.56201C6.49976 5.87295 7.17319 5.31201 7.99976 5.31201C8.82632 5.31201 9.49976 5.87295 9.49976 6.56201C9.49976 7.04795 9.15601 7.49326 8.62319 7.69795C8.29194 7.82451 8.01069 8.04639 7.80913 8.33701C7.60444 8.63389 7.49819 8.99014 7.49819 9.35107V9.68701C7.49819 9.75576 7.55444 9.81201 7.62319 9.81201H8.37319C8.44194 9.81201 8.49819 9.75576 8.49819 9.68701V9.33232C8.499 9.18064 8.5455 9.03272 8.63162 8.90785C8.71775 8.78298 8.8395 8.68697 8.98101 8.63232C9.90288 8.27764 10.4982 7.46514 10.4982 6.56201C10.4998 5.94795 10.231 5.37451 9.74351 4.94795ZM7.37476 11.437C7.37476 11.6028 7.4406 11.7617 7.55781 11.879C7.67502 11.9962 7.834 12.062 7.99976 12.062C8.16552 12.062 8.32449 11.9962 8.4417 11.879C8.55891 11.7617 8.62476 11.6028 8.62476 11.437C8.62476 11.2713 8.55891 11.1123 8.4417 10.9951C8.32449 10.8779 8.16552 10.812 7.99976 10.812C7.834 10.812 7.67502 10.8779 7.55781 10.9951C7.4406 11.1123 7.37476 11.2713 7.37476 11.437Z" fill="#667085"/>
</svg>
