<svg width="35" height="34" viewBox="0 0 35 34" fill="none" xmlns="http://www.w3.org/2000/svg">
<g filter="url(#filter0_d_24091_92899)">
<path d="M17.5 29C24.1274 29 29.5 23.6274 29.5 17C29.5 10.3726 24.1274 5 17.5 5C10.8726 5 5.5 10.3726 5.5 17C5.5 23.6274 10.8726 29 17.5 29Z" fill="white"/>
</g>
<g clip-path="url(#clip0_24091_92899)">
<path d="M22.1271 13.4484C21.9015 13.4279 21.702 13.5941 21.6814 13.8197L21.627 14.4158C20.705 12.9678 19.1045 12 17.25 12C15.255 12 13.4968 13.1386 12.6241 14.8476C12.521 15.0493 12.6011 15.2964 12.8028 15.3994C13.0046 15.5024 13.2516 15.4224 13.3546 15.2207C14.0932 13.7744 15.5765 12.8203 17.25 12.8203C18.7753 12.8203 20.1519 13.6146 20.9405 14.859L20.3556 14.4413C20.1713 14.3096 19.9151 14.3523 19.7835 14.5367C19.6518 14.721 19.6945 14.9771 19.8789 15.1088L21.6523 16.3754C21.9122 16.5607 22.2707 16.3911 22.2991 16.0789L22.4983 13.8942C22.5189 13.6686 22.3527 13.469 22.1271 13.4484Z" fill="#FA9E00"/>
<path d="M21.6972 19.0994C21.4954 18.9964 21.2484 19.0764 21.1454 19.2782C20.4067 20.7245 18.9235 21.6785 17.25 21.6785C15.7247 21.6785 14.3481 20.8843 13.5595 19.6399L14.1444 20.0576C14.3287 20.1892 14.5848 20.1465 14.7165 19.9622C14.8481 19.7779 14.8054 19.5217 14.6211 19.3901L12.8477 18.1235C12.591 17.9401 12.2296 18.1046 12.2009 18.42L12.0017 20.6047C11.9812 20.8303 12.1474 21.0298 12.3729 21.0504C12.5988 21.0709 12.7981 20.9045 12.8186 20.6792L12.873 20.083C13.795 21.531 15.3955 22.4989 17.25 22.4989C19.245 22.4989 21.0032 21.3602 21.8759 19.6513C21.979 19.4495 21.8989 19.2025 21.6972 19.0994Z" fill="#FA9E00"/>
</g>
<defs>
<filter id="filter0_d_24091_92899" x="0.5" y="0" width="34" height="34" filterUnits="userSpaceOnUse" color-interpolation-filters="sRGB">
<feFlood flood-opacity="0" result="BackgroundImageFix"/>
<feColorMatrix in="SourceAlpha" type="matrix" values="0 0 0 0 0 0 0 0 0 0 0 0 0 0 0 0 0 0 127 0" result="hardAlpha"/>
<feOffset/>
<feGaussianBlur stdDeviation="2.5"/>
<feColorMatrix type="matrix" values="0 0 0 0 0 0 0 0 0 0 0 0 0 0 0 0 0 0 0.23 0"/>
<feBlend mode="normal" in2="BackgroundImageFix" result="effect1_dropShadow_24091_92899"/>
<feBlend mode="normal" in="SourceGraphic" in2="effect1_dropShadow_24091_92899" result="shape"/>
</filter>
<clipPath id="clip0_24091_92899">
<rect width="10.5" height="10.5" fill="white" transform="translate(12 12)"/>
</clipPath>
</defs>
</svg>
