<svg width="16" height="16" viewBox="0 0 16 16" fill="none" xmlns="http://www.w3.org/2000/svg">
<path d="M2 13.75C1.58579 13.75 1.25 14.0858 1.25 14.5C1.25 14.9142 1.58579 15.25 2 15.25V13.75ZM14 15.25C14.4142 15.25 14.75 14.9142 14.75 14.5C14.75 14.0858 14.4142 13.75 14 13.75V15.25ZM4.87975 11.992L4.77369 11.2496H4.77368L4.87975 11.992ZM4.00795 11.1202L4.75041 11.2263L4.00795 11.1202ZM4.77078 7.95997L4.24045 7.42964L4.77078 7.95997ZM4.33488 8.83177L3.59241 8.72571V8.72571L4.33488 8.83177ZM8.04003 11.2292L8.57036 11.7596L8.04003 11.2292ZM7.16823 11.6651L7.27429 12.4076H7.27429L7.16823 11.6651ZM13.5486 3.54114L13.0183 4.07147L13.0183 4.07147L13.5486 3.54114ZM13.5486 5.72064L13.0183 5.19031V5.19031L13.5486 5.72064ZM12.4589 2.45139L12.9892 1.92106L12.9892 1.92106L12.4589 2.45139ZM10.2794 2.45139L10.8097 2.98172L10.2794 2.45139ZM9.93961 3.54114C9.93961 3.12693 9.60382 2.79114 9.18961 2.79114C8.77539 2.79114 8.43961 3.12693 8.43961 3.54114L9.93961 3.54114ZM12.4589 7.56039C12.8731 7.56039 13.2089 7.22461 13.2089 6.81039C13.2089 6.39618 12.8731 6.06039 12.4589 6.06039V7.56039ZM2 15.25H14V13.75H2V15.25ZM11.9285 2.98172L13.0183 4.07147L14.0789 3.01081L12.9892 1.92106L11.9285 2.98172ZM13.0183 5.19031L7.5097 10.6989L8.57036 11.7596L14.0789 6.25097L13.0183 5.19031ZM5.30111 8.4903L10.8097 2.98172L9.74903 1.92106L4.24045 7.42964L5.30111 8.4903ZM7.06216 10.9227L4.77369 11.2496L4.98582 12.7345L7.27429 12.4076L7.06216 10.9227ZM4.75041 11.2263L5.07734 8.93784L3.59241 8.72571L3.26549 11.0142L4.75041 11.2263ZM4.77368 11.2496C4.76978 11.2501 4.76766 11.25 4.76689 11.2499C4.76602 11.2498 4.76534 11.2497 4.7646 11.2494C4.7629 11.2488 4.75968 11.2472 4.75623 11.2438C4.75278 11.2403 4.75116 11.2371 4.75057 11.2354C4.75032 11.2347 4.75016 11.234 4.75008 11.2331C4.75 11.2323 4.74985 11.2302 4.75041 11.2263L3.26549 11.0142C3.12213 12.0177 3.98229 12.8779 4.98582 12.7345L4.77368 11.2496ZM4.24045 7.42964C3.88991 7.78018 3.66252 8.23496 3.59241 8.72571L5.07734 8.93784C5.10155 8.76838 5.18006 8.61135 5.30111 8.4903L4.24045 7.42964ZM7.5097 10.6989C7.38865 10.8199 7.23162 10.8985 7.06216 10.9227L7.27429 12.4076C7.76504 12.3375 8.21982 12.1101 8.57036 11.7596L7.5097 10.6989ZM13.0183 4.07147C13.3272 4.38043 13.3272 4.88135 13.0183 5.19031L14.0789 6.25097C14.9737 5.35622 14.9737 3.90556 14.0789 3.01081L13.0183 4.07147ZM12.9892 1.92106C12.0944 1.02631 10.6438 1.02631 9.74903 1.92106L10.8097 2.98172C11.1186 2.67276 11.6196 2.67276 11.9285 2.98172L12.9892 1.92106ZM9.18961 3.54114C8.43961 3.54114 8.43961 3.54151 8.43961 3.54189C8.43961 3.54202 8.43961 3.5424 8.43961 3.54266C8.43961 3.54318 8.43961 3.54372 8.43961 3.54428C8.43962 3.5454 8.43962 3.54659 8.43963 3.54784C8.43965 3.55035 8.43969 3.55314 8.43973 3.5562C8.43983 3.56233 8.44 3.56955 8.44026 3.57783C8.4408 3.59438 8.44174 3.6152 8.4434 3.63999C8.4467 3.68954 8.45283 3.75515 8.46417 3.83451C8.48683 3.99311 8.53043 4.20774 8.61431 4.45941C8.78296 4.96534 9.11253 5.61448 9.74903 6.25097L10.8097 5.19031C10.3564 4.73706 10.1411 4.29644 10.0373 3.98506C9.98501 3.82807 9.96049 3.70216 9.9491 3.62238C9.94341 3.58255 9.94103 3.55451 9.94007 3.54021C9.9396 3.53307 9.93948 3.52941 9.93948 3.52946C9.93948 3.5295 9.93952 3.53046 9.93955 3.5324C9.93956 3.53336 9.93958 3.53457 9.93959 3.53603C9.93959 3.53676 9.9396 3.53755 9.9396 3.5384C9.9396 3.53883 9.9396 3.53927 9.93961 3.53972C9.93961 3.53995 9.93961 3.54031 9.93961 3.54042C9.93961 3.54078 9.93961 3.54114 9.18961 3.54114ZM9.74903 6.25097C10.3855 6.88747 11.0347 7.21704 11.5406 7.38569C11.7923 7.46957 12.0069 7.51317 12.1655 7.53583C12.2449 7.54716 12.3105 7.5533 12.36 7.5566C12.3848 7.55826 12.4056 7.5592 12.4222 7.55974C12.4305 7.56 12.4377 7.56017 12.4438 7.56026C12.4469 7.56031 12.4496 7.56035 12.4522 7.56037C12.4534 7.56037 12.4546 7.56038 12.4557 7.56039C12.4563 7.56039 12.4568 7.56039 12.4573 7.56039C12.4576 7.56039 12.458 7.56039 12.4581 7.56039C12.4585 7.56039 12.4589 7.56039 12.4589 6.81039C12.4589 6.06039 12.4592 6.06039 12.4596 6.06039C12.4597 6.06039 12.46 6.06039 12.4603 6.06039C12.4607 6.06039 12.4612 6.0604 12.4616 6.0604C12.4625 6.0604 12.4632 6.06041 12.464 6.06041C12.4654 6.06042 12.4666 6.06044 12.4676 6.06045C12.4695 6.06048 12.4705 6.06052 12.4705 6.06052C12.4706 6.06052 12.4669 6.0604 12.4598 6.05993C12.4455 6.05897 12.4175 6.05659 12.3776 6.0509C12.2978 6.03951 12.1719 6.01499 12.0149 5.96266C11.7036 5.85887 11.2629 5.64357 10.8097 5.19031L9.74903 6.25097Z" fill="#2C6DF9"/>
</svg>
