<svg width="16" height="16" viewBox="0 0 16 16" fill="none" xmlns="http://www.w3.org/2000/svg">
<g clip-path="url(#clip0_22855_65537)">
<path d="M12.0497 7.99999C12.0497 10.4144 10.4144 12.3716 8.00002 12.3716C5.58563 12.3716 3.62842 10.4144 3.62842 7.99999C3.62842 5.5856 5.58567 3.62836 8.00006 3.62836C10.4144 3.62836 12.0497 5.5856 12.0497 7.99999Z" fill="#FEE45A"/>
<path d="M7.99999 3.62836C7.83674 3.62836 7.67567 3.6376 7.51709 3.65505C9.7042 3.89543 11.4058 5.74886 11.4058 7.99999C11.4058 10.2511 9.7042 12.1046 7.51709 12.3449C7.67567 12.3624 7.83674 12.3716 7.99999 12.3716C10.4144 12.3716 12.3716 10.4144 12.3716 7.99999C12.3716 5.5856 10.4143 3.62836 7.99999 3.62836Z" fill="#FED402"/>
<path d="M7.99989 2.55713H7.20929C7.09343 2.55713 7.0125 2.44243 7.05135 2.33326L7.4858 1.11234L7.84195 0.111453C7.89485 -0.0371509 8.10497 -0.0371509 8.15787 0.111453L8.51402 1.11234L8.94847 2.33326C8.98732 2.4424 8.90636 2.55713 8.79053 2.55713H7.99989Z" fill="#FEE45A"/>
<path d="M7.99991 13.4429H8.79051C8.90638 13.4429 8.98731 13.5576 8.94845 13.6668L8.514 14.8877L8.15785 15.8886C8.10496 16.0372 7.89483 16.0372 7.84194 15.8886L7.48579 14.8877L7.05134 13.6668C7.01252 13.5576 7.09345 13.4429 7.20928 13.4429H7.99991Z" fill="#FEE45A"/>
<path d="M13.4429 7.99999V7.20939C13.4429 7.09352 13.5576 7.01259 13.6667 7.05145L14.8877 7.48589L15.8886 7.84205C16.0372 7.89494 16.0372 8.10506 15.8886 8.15796L14.8877 8.51411L13.6667 8.94856C13.5576 8.98741 13.4429 8.90645 13.4429 8.79062V7.99999Z" fill="#FED402"/>
<path d="M2.55713 8V8.7906C2.55713 8.90647 2.44243 8.9874 2.33326 8.94854L1.11234 8.5141L0.111453 8.15794C-0.0371509 8.10508 -0.0371509 7.89493 0.111453 7.84203L1.11234 7.48588L2.33326 7.05143C2.44243 7.01261 2.55713 7.09354 2.55713 7.20937V8Z" fill="#FEE45A"/>
<path d="M4.15136 4.15131L3.59232 4.71035C3.51039 4.79228 3.37206 4.76839 3.32235 4.66373L2.76625 3.49322L2.31033 2.53364C2.24262 2.39118 2.39123 2.24258 2.53371 2.31025L3.4933 2.76614L4.66381 3.32224C4.76847 3.37195 4.79232 3.51032 4.71042 3.59221L4.15136 4.15131Z" fill="#FEE45A"/>
<path d="M11.8487 11.8487L12.4077 11.2896C12.4896 11.2077 12.628 11.2316 12.6777 11.3363L13.2338 12.5068L13.6897 13.4664C13.7574 13.6088 13.6088 13.7574 13.4663 13.6897L12.5067 13.2339L11.3362 12.6777C11.2316 12.628 11.2077 12.4896 11.2896 12.4077L11.8487 11.8487Z" fill="#FED402"/>
<path d="M11.8487 4.15129L11.2896 3.59226C11.2077 3.51033 11.2316 3.37199 11.3362 3.32229L12.5067 2.76618L13.4663 2.3103C13.6088 2.24259 13.7574 2.3912 13.6897 2.53368L13.2338 3.49327L12.6777 4.66378C12.628 4.76844 12.4896 4.79229 12.4077 4.71039L11.8487 4.15129Z" fill="#FED402"/>
<path d="M4.15137 11.8487L4.71041 12.4077C4.79234 12.4897 4.76845 12.628 4.66379 12.6777L3.49328 13.2338L2.5337 13.6897C2.39125 13.7574 2.24264 13.6088 2.31031 13.4663L2.7662 12.5067L3.3223 11.3362C3.37201 11.2316 3.51038 11.2077 3.59228 11.2896L4.15137 11.8487Z" fill="#FEE45A"/>
</g>
<defs>
<clipPath id="clip0_22855_65537">
<rect width="16" height="16" fill="white"/>
</clipPath>
</defs>
</svg>
