<svg width="74" height="74" viewBox="0 0 74 74" fill="none" xmlns="http://www.w3.org/2000/svg">
<circle opacity="0.25" cx="37" cy="37" r="37" fill="#E4EDFF"/>
<circle cx="37" cy="37" r="25" fill="#E4EDFF"/>
<g clip-path="url(#clip0_21451_56785)">
<path d="M44.5188 31.7022C44.2622 30.1772 43.5071 28.7854 42.3523 27.7293C41.0691 26.5547 39.401 25.9082 37.6638 25.9082C36.3214 25.9082 35.0136 26.2932 33.8933 27.0186C32.9605 27.6207 32.1857 28.435 31.6379 29.3925C31.401 29.3481 31.1542 29.3234 30.9075 29.3234C28.81 29.3234 27.1024 31.031 27.1024 33.1284C27.1024 33.3999 27.132 33.6614 27.1814 33.9181C25.8242 34.9051 25 36.4943 25 38.187C25 39.5541 25.5083 40.8817 26.4362 41.9329C27.3886 43.0088 28.6471 43.6454 29.9895 43.7194C30.0043 43.7194 30.0142 43.7194 30.029 43.7194H34.2733C34.6434 43.7194 34.9395 43.4233 34.9395 43.0532C34.9395 42.683 34.6434 42.3869 34.2733 42.3869H30.0487C28.0302 42.2635 26.3325 40.3437 26.3325 38.1821C26.3325 36.7854 27.0827 35.4825 28.2918 34.7768C28.5731 34.6139 28.6915 34.2734 28.583 33.9674C28.4843 33.7009 28.4349 33.4196 28.4349 33.1186C28.4349 31.7564 29.5453 30.646 30.9075 30.646C31.1986 30.646 31.4849 30.6954 31.7514 30.7941C32.0771 30.9125 32.4374 30.7645 32.5854 30.4535C33.5083 28.4943 35.5022 27.2308 37.6687 27.2308C40.5805 27.2308 42.984 29.4122 43.2603 32.3043C43.2899 32.6053 43.517 32.8471 43.8131 32.8965C46.0093 33.2716 47.6675 35.2999 47.6675 37.6146C47.6675 40.0674 45.7378 42.1994 43.359 42.382H39.7218C39.3516 42.382 39.0555 42.6781 39.0555 43.0482C39.0555 43.4184 39.3516 43.7145 39.7218 43.7145H43.3837C43.3985 43.7145 43.4133 43.7145 43.4331 43.7145C44.9383 43.6059 46.3449 42.915 47.3911 41.7601C48.4325 40.6152 49 39.1445 49 37.6146C48.9951 34.8459 47.1049 32.3832 44.5188 31.7022Z" fill="#2C6DF9"/>
<path d="M41.0002 38.8191C41.2618 38.5575 41.2618 38.1381 41.0002 37.8765L37.4715 34.3478C37.3482 34.2244 37.1754 34.1504 37.0027 34.1504C36.83 34.1504 36.6572 34.2195 36.5338 34.3478L33.0052 37.8765C32.7436 38.1381 32.7436 38.5575 33.0052 38.8191C33.1335 38.9474 33.3062 39.0165 33.474 39.0165C33.6418 39.0165 33.8145 38.9524 33.9429 38.8191L36.3364 36.4255V47.4261C36.3364 47.7963 36.6326 48.0924 37.0027 48.0924C37.3728 48.0924 37.669 47.7963 37.669 47.4261V36.4255L40.0625 38.8191C40.3192 39.0807 40.7387 39.0807 41.0002 38.8191Z" fill="#2C6DF9"/>
</g>
<defs>
<clipPath id="clip0_21451_56785">
<rect width="24" height="24" fill="white" transform="translate(25 25)"/>
</clipPath>
</defs>
</svg>
