<svg width="24" height="24" viewBox="0 0 24 24" fill="none" xmlns="http://www.w3.org/2000/svg">
<path d="M3.00775 21.1022V21.9522H3.85775H9.22204V22.1808H2.78633C2.78554 22.1808 2.78492 22.1808 2.78446 22.1807C2.78381 22.1807 2.78347 22.1806 2.78337 22.1806L2.78304 22.1805C2.78286 22.1804 2.78204 22.18 2.781 22.179C2.77997 22.178 2.77956 22.1771 2.77949 22.177L2.77939 22.1766C2.77936 22.1765 2.77918 22.1756 2.77918 22.1737V1.17367C2.77918 1.17178 2.77936 1.17088 2.77939 1.17072L2.77949 1.17039C2.77956 1.17021 2.77997 1.16938 2.781 1.16835C2.78204 1.16732 2.78286 1.16691 2.78304 1.16683L2.78337 1.16674C2.78354 1.16671 2.78443 1.16653 2.78633 1.16653H19.9292C19.9311 1.16653 19.932 1.16671 19.9321 1.16674L19.9325 1.16683C19.9325 1.16686 19.9327 1.16694 19.9329 1.16709C19.9333 1.16732 19.9339 1.16772 19.9345 1.16835C19.9355 1.16938 19.9359 1.17021 19.936 1.17039L19.9361 1.17072C19.9361 1.17088 19.9363 1.17178 19.9363 1.17367V10.8237H19.7078V2.2451V1.3951H18.8578H3.85775H3.00775V2.2451V21.1022ZM18.8439 18.4797L17.9756 19.2672L18.9939 19.8478C20.0917 20.4737 20.894 21.5518 21.1443 22.8237H21.1284C20.7319 20.8106 18.9511 19.288 16.822 19.288C14.693 19.288 12.9122 20.8106 12.5157 22.8237H12.5008C12.7525 21.5522 13.5537 20.473 14.6502 19.8478L15.6685 19.2672L14.8002 18.4797C14.194 17.93 13.8149 17.1378 13.8149 16.254C13.8149 14.594 15.162 13.2469 16.822 13.2469C18.4821 13.2469 19.8292 14.594 19.8292 16.254C19.8292 17.1378 19.4501 17.93 18.8439 18.4797ZM6.85061 5.98796H15.8649V6.00224H6.85061V5.98796ZM6.85061 9.8451H15.8649V9.85939H6.85061V9.8451ZM6.85061 13.7165V13.7022H10.5078V13.7165H6.85061ZM19.8149 16.254C19.8149 14.6007 18.4754 13.2612 16.822 13.2612C15.1687 13.2612 13.8292 14.6007 13.8292 16.254C13.8292 17.9074 15.1687 19.2469 16.822 19.2469C18.4754 19.2469 19.8149 17.9074 19.8149 16.254Z" stroke="white" stroke-width="1.7"/>
</svg>
